<svg width="21" height="21" viewBox="0 0 21 21" fill="none" xmlns="http://www.w3.org/2000/svg">
<path d="M9.28875 12.3488L14.3038 7.33385C14.4596 7.17801 14.6579 7.1001 14.8988 7.1001C15.1396 7.1001 15.3379 7.17801 15.4937 7.33385C15.6496 7.48968 15.7275 7.68801 15.7275 7.92885C15.7275 8.16968 15.6496 8.36801 15.4937 8.52385L9.88375 14.1338C9.71375 14.3038 9.51542 14.3888 9.28875 14.3888C9.06208 14.3888 8.86375 14.3038 8.69375 14.1338L6.48375 11.9238C6.32792 11.768 6.25 11.5697 6.25 11.3288C6.25 11.088 6.32792 10.8897 6.48375 10.7338C6.63958 10.578 6.83792 10.5001 7.07875 10.5001C7.31958 10.5001 7.51792 10.578 7.67375 10.7338L9.28875 12.3488Z" fill="#0E7F3D"/>
<circle cx="10.5" cy="10.5" r="9.5" stroke="#0E7F3D" stroke-width="2"/>
</svg>
