<svg width="46" height="46" viewBox="0 0 46 46" fill="none" xmlns="http://www.w3.org/2000/svg">
<g clip-path="url(#clip0_243_3779)">
<path d="M23 44C34.598 44 44 34.598 44 23C44 11.402 34.598 2 23 2C11.402 2 2 11.402 2 23C2 34.598 11.402 44 23 44Z" fill="white" stroke="#32B768" stroke-width="4"/>
<path d="M18.0001 27V33M24.0001 30V33M21.0001 21V21.2C21.6559 21.4522 22.2024 21.9266 22.5443 22.5405C22.8861 23.1544 23.0017 23.8687 22.8708 24.5591C22.7398 25.2494 22.3707 25.8719 21.8279 26.318C21.285 26.7641 20.6027 27.0054 19.9001 27H16.0001C15.3059 26.9827 14.6391 26.7251 14.1136 26.2712C13.5881 25.8172 13.2363 25.195 13.1183 24.5106C13.0003 23.8263 13.1234 23.1222 13.4666 22.5185C13.8097 21.9147 14.3517 21.4488 15.0001 21.2V21C15.0001 20.2044 15.3162 19.4413 15.8788 18.8787C16.4414 18.3161 17.2044 18 18.0001 18C18.7957 18 19.5588 18.3161 20.1214 18.8787C20.684 19.4413 21.0001 20.2044 21.0001 21Z" stroke="#222222" stroke-width="1.5" stroke-linecap="round" stroke-linejoin="round"/>
<path d="M23.0001 30H31.3001C31.4958 29.9973 31.6864 29.9371 31.8483 29.8271C32.0102 29.717 32.1362 29.5618 32.2107 29.3808C32.2853 29.1998 32.305 29.001 32.2676 28.8088C32.2301 28.6167 32.1371 28.4398 32.0001 28.3L29.0001 25H29.3001C29.4958 24.9973 29.6864 24.9371 29.8483 24.8271C30.0102 24.717 30.1362 24.5619 30.2107 24.3808C30.2853 24.1998 30.305 24.001 30.2676 23.8088C30.2301 23.6167 30.1371 23.4398 30.0001 23.3L27.0001 20H27.2001C27.4043 20.0184 27.6093 19.9736 27.7873 19.8716C27.9652 19.7696 28.1074 19.6154 28.1948 19.4298C28.2821 19.2443 28.3102 19.0364 28.2754 18.8343C28.2406 18.6322 28.1445 18.4456 28.0001 18.3L24.0001 14L22.6001 15.5" stroke="#222222" stroke-width="1.5" stroke-linecap="round" stroke-linejoin="round"/>
</g>
<defs>
<clipPath id="clip0_243_3779">
<rect width="46" height="46" fill="white"/>
</clipPath>
</defs>
</svg>
