<svg width="46" height="46" viewBox="0 0 46 46" fill="none" xmlns="http://www.w3.org/2000/svg">
<g clip-path="url(#clip0_243_3793)">
<path d="M23 44C34.598 44 44 34.598 44 23C44 11.402 34.598 2 23 2C11.402 2 2 11.402 2 23C2 34.598 11.402 44 23 44Z" fill="white" stroke="#32B467" stroke-width="4"/>
<path fill-rule="evenodd" clip-rule="evenodd" d="M14.0002 30.75C14.0002 30.0597 14.5599 29.5 15.2502 29.5H30.7502C31.4406 29.5 32.0002 30.0597 32.0002 30.75C32.0002 31.4403 31.4406 32 30.7502 32H15.2502C14.5599 32 14.0002 31.4403 14.0002 30.75ZM15.2502 30.5C15.1122 30.5 15.0002 30.6119 15.0002 30.75C15.0002 30.8881 15.1122 31 15.2502 31H30.7502C30.8883 31 31.0002 30.8881 31.0002 30.75C31.0002 30.6119 30.8883 30.5 30.7502 30.5H15.2502Z" fill="#333333"/>
<path fill-rule="evenodd" clip-rule="evenodd" d="M20.2563 18.2881L20.449 17.4517C20.4823 17.3075 20.5 17.1565 20.5 17C20.5 15.8954 19.6046 15 18.5 15C17.3954 15 16.5 15.8954 16.5 17C16.5 17.1565 16.5178 17.3075 16.551 17.4517L16.7436 18.2881L15.9461 18.6053C15.3901 18.8264 15 19.3688 15 20C15 20.1501 15.0217 20.2934 15.0616 20.4277L15.2994 21.2297L14.552 21.6054C14.2226 21.7711 14 22.1104 14 22.5C14 23.0523 14.4477 23.5 15 23.5H22C22.5523 23.5 23 23.0523 23 22.5C23 22.1104 22.7775 21.7711 22.448 21.6054L21.7006 21.2297L21.9384 20.4277C21.9783 20.2934 22 20.1501 22 20C22 19.3688 21.6098 18.8264 21.0539 18.6053L20.2563 18.2881ZM22.8972 20.712C23.5512 21.0408 24 21.718 24 22.5C24 23.6046 23.1046 24.5 22 24.5H15C13.8954 24.5 13 23.6046 13 22.5C13 21.718 13.4488 21.0408 14.1029 20.712C14.0359 20.4863 14 20.2474 14 20C14 18.9455 14.6529 18.0434 15.5765 17.6761C15.5264 17.4588 15.5 17.2325 15.5 17C15.5 15.3431 16.8432 14 18.5 14C20.1568 14 21.5 15.3431 21.5 17C21.5 17.2325 21.4736 17.4588 21.4235 17.6761C22.3471 18.0434 23 18.9455 23 20C23 20.2474 22.9641 20.4863 22.8972 20.712Z" fill="#333333"/>
<path fill-rule="evenodd" clip-rule="evenodd" d="M18 29.5V21.5H19V29.5H18Z" fill="#333333"/>
<path d="M25.7168 22.6089L27.5235 21.3483C27.7396 21.1948 28.0026 21.1159 28.2703 21.1244C28.5969 21.1323 28.9128 21.2387 29.1741 21.429C29.4355 21.6193 29.6292 21.8838 29.7285 22.1859C29.8403 22.526 29.9424 22.7558 30.035 22.8754C30.3145 23.2375 30.6772 23.5314 31.0942 23.7337C31.5112 23.936 31.6867 24.0408 32.4371 24.0408C33.1876 24.0408 33.1876 25.2074 32.4371 25.2074C31.6867 25.2074 31.2037 25.0752 30.6425 24.8183C30.0812 24.5614 29.5857 24.1869 29.1914 23.7218L28.7726 26.0287L30.0109 27.0378L31.25 30.2495H30L28.9913 27.7307L26.9545 26.0713C26.7873 25.9402 26.6594 25.7681 26.584 25.5728C26.5087 25.3774 26.4887 25.1661 26.5261 24.9607L26.8319 23.2779L26.4251 23.5649C26.4251 23.5649 25.6615 24.6141 25.1471 25.2727C24.6328 25.9314 23.5853 25.3343 24.175 24.5868C24.7646 23.8393 25.4975 22.8099 25.4975 22.8099L25.7168 22.6089ZM29.1325 20.8327C28.8138 20.8327 28.5081 20.7098 28.2828 20.491C28.0574 20.2722 27.9308 19.9755 27.9308 19.6661C27.9308 19.3567 28.0574 19.06 28.2828 18.8412C28.5081 18.6224 28.8138 18.4995 29.1325 18.4995C29.4512 18.4995 29.7569 18.6224 29.9822 18.8412C30.2076 19.06 30.3342 19.3567 30.3342 19.6661C30.3342 19.9755 30.2076 20.2722 29.9822 20.491C29.7569 20.7098 29.4512 20.8327 29.1325 20.8327ZM27.3468 28.5211L25.5 30.4995L24.175 30.4571L26.2833 27.9372L26.7315 26.6656L27.8077 27.5406L27.3468 28.5211Z" fill="#333333"/>
</g>
<defs>
<clipPath id="clip0_243_3793">
<rect width="46" height="46" fill="white"/>
</clipPath>
</defs>
</svg>
