<svg width="147" height="155" viewBox="0 0 147 155" fill="none" xmlns="http://www.w3.org/2000/svg">
<path d="M121.743 68.3608H24.938V152.049H121.743V68.3608Z" fill="url(#paint0_linear_233_3544)"/>
<path d="M119.689 70.4233V149.986H27.0005V70.4233H119.689ZM123.814 66.2983H22.8755V154.111H123.814V66.2983Z" fill="#F0EBE6"/>
<path d="M27.0005 110.205H99.6005" stroke="#00451D" stroke-width="4.125" stroke-miterlimit="10"/>
<path d="M105.178 3.00006L3 47.8955L13.6066 72.0351L115.784 27.1396L105.178 3.00006Z" fill="url(#paint1_linear_233_3544)" stroke="#F0EBE6" stroke-width="4.125" stroke-miterlimit="10"/>
<path d="M119.417 130.03C130.366 130.03 139.242 121.154 139.242 110.205C139.242 99.256 130.366 90.3801 119.417 90.3801C108.468 90.3801 99.5923 99.256 99.5923 110.205C99.5923 121.154 108.468 130.03 119.417 130.03Z" fill="#F0EBE6" stroke="url(#paint2_linear_233_3544)" stroke-width="4.125" stroke-miterlimit="10"/>
<path d="M119.417 100.239V120.171" stroke="#25D366" stroke-width="4.125" stroke-miterlimit="10"/>
<path d="M129.391 110.205H109.451" stroke="#25D366" stroke-width="4.125" stroke-miterlimit="10"/>
<path d="M53.8047 93.2263C56.2797 95.7013 61.7247 110.205 61.7247 110.205C61.7247 110.205 47.2459 104.785 44.7462 102.285C44.1503 101.689 43.6776 100.982 43.3552 100.203C43.0327 99.4244 42.8667 98.59 42.8667 97.7473C42.8667 96.9046 43.0327 96.0702 43.3552 95.2916C43.6776 94.5131 44.1503 93.8057 44.7462 93.2098C45.9496 92.0064 47.5818 91.3303 49.2837 91.3303C50.1264 91.3303 50.9608 91.4963 51.7394 91.8188C52.5179 92.1413 53.2253 92.6139 53.8212 93.2098L53.8047 93.2263Z" stroke="#00451D" stroke-width="4.125" stroke-miterlimit="10"/>
<path d="M69.6449 93.2263C67.1699 95.7013 61.7249 110.205 61.7249 110.205C61.7249 110.205 76.2036 104.785 78.7034 102.285C79.2992 101.689 79.7719 100.982 80.0944 100.203C80.4169 99.4244 80.5828 98.59 80.5828 97.7473C80.5828 96.9046 80.4169 96.0702 80.0944 95.2916C79.7719 94.5131 79.2992 93.8057 78.7034 93.2098C78.1075 92.6139 77.4001 92.1413 76.6215 91.8188C75.843 91.4963 75.0085 91.3303 74.1659 91.3303C73.3232 91.3303 72.4887 91.4963 71.7102 91.8188C70.9316 92.1413 70.2242 92.6139 69.6284 93.2098L69.6449 93.2263Z" stroke="#00451D" stroke-width="4.125" stroke-miterlimit="10"/>
<path d="M53.5574 127.711L61.7249 110.205" stroke="#00451D" stroke-width="4.125" stroke-miterlimit="10"/>
<path d="M69.8924 127.711L61.7249 110.205" stroke="#00451D" stroke-width="4.125" stroke-miterlimit="10"/>
<path d="M131.858 64.4172L130.513 71.9412C130.47 72.1356 130.362 72.3096 130.207 72.4343C130.052 72.5589 129.858 72.6269 129.659 72.6269C129.46 72.6269 129.267 72.5589 129.112 72.4343C128.957 72.3096 128.848 72.1356 128.805 71.9412L127.238 64.4585C126.892 62.5855 126.012 60.8522 124.706 59.4664C123.399 58.0806 121.72 57.1013 119.871 56.6457L112.619 55.07C112.444 55.014 112.292 54.9039 112.183 54.7556C112.075 54.6074 112.017 54.4285 112.017 54.245C112.017 54.0614 112.075 53.8826 112.183 53.7343C112.292 53.586 112.444 53.4759 112.619 53.42L119.821 51.6297C121.656 51.1163 123.304 50.0843 124.567 48.6575C125.83 47.2306 126.654 45.4697 126.941 43.586L128.286 36.0702C128.329 35.8758 128.437 35.7018 128.592 35.5772C128.747 35.4525 128.94 35.3845 129.14 35.3845C129.339 35.3845 129.532 35.4525 129.687 35.5772C129.842 35.7018 129.95 35.8758 129.993 36.0702L131.561 43.553C131.906 45.4274 132.784 47.1625 134.091 48.5499C135.398 49.9372 137.078 50.9178 138.928 51.374L146.18 52.9415C146.355 52.9974 146.507 53.1075 146.616 53.2558C146.724 53.4041 146.782 53.5829 146.782 53.7665C146.782 53.95 146.724 54.1289 146.616 54.2771C146.507 54.4254 146.355 54.5355 146.18 54.5915L138.978 56.39C137.145 56.9022 135.499 57.9318 134.236 59.3554C132.973 60.7791 132.148 62.5365 131.858 64.4172Z" fill="url(#paint3_linear_233_3544)"/>
<defs>
<linearGradient id="paint0_linear_233_3544" x1="54.2337" y1="162.708" x2="92.456" y2="57.6936" gradientUnits="userSpaceOnUse">
<stop stop-color="#0E7F3D"/>
<stop offset="0.06" stop-color="#139C4C"/>
<stop offset="0.14" stop-color="#18BB5C"/>
<stop offset="0.24" stop-color="#18C660"/>
<stop offset="0.34" stop-color="#1DDD6D"/>
<stop offset="0.46" stop-color="#3AE07F"/>
<stop offset="0.59" stop-color="#7DDAA3"/>
<stop offset="0.74" stop-color="#68E29B"/>
<stop offset="1" stop-color="#8FDBAF"/>
</linearGradient>
<linearGradient id="paint1_linear_233_3544" x1="52.1046" y1="78.8276" x2="66.6741" y2="-3.78793" gradientUnits="userSpaceOnUse">
<stop stop-color="#0E7F3D"/>
<stop offset="0.06" stop-color="#099945"/>
<stop offset="0.14" stop-color="#10A24C"/>
<stop offset="0.24" stop-color="#11B756"/>
<stop offset="0.34" stop-color="#14CF62"/>
<stop offset="0.46" stop-color="#34E57D"/>
<stop offset="0.59" stop-color="#41E886"/>
<stop offset="0.74" stop-color="#88E8B0"/>
<stop offset="1" stop-color="#CAF9DD"/>
</linearGradient>
<linearGradient id="paint2_linear_233_3544" x1="115.622" y1="131.762" x2="123.22" y2="88.6476" gradientUnits="userSpaceOnUse">
<stop stop-color="#1F8654"/>
<stop offset="0.02" stop-color="#1F8C55"/>
<stop offset="0.16" stop-color="#21A65B"/>
<stop offset="0.3" stop-color="#23BA60"/>
<stop offset="0.47" stop-color="#24C863"/>
<stop offset="0.67" stop-color="#25D065"/>
<stop offset="1" stop-color="#25D366"/>
</linearGradient>
<linearGradient id="paint3_linear_233_3544" x1="126.198" y1="72.0567" x2="132.576" y2="35.93" gradientUnits="userSpaceOnUse">
<stop stop-color="#1F8654"/>
<stop offset="0.02" stop-color="#1F8C55"/>
<stop offset="0.16" stop-color="#21A65B"/>
<stop offset="0.3" stop-color="#23BA60"/>
<stop offset="0.47" stop-color="#24C863"/>
<stop offset="0.67" stop-color="#25D065"/>
<stop offset="1" stop-color="#25D366"/>
</linearGradient>
</defs>
</svg>
