<svg width="46" height="46" viewBox="0 0 46 46" fill="none" xmlns="http://www.w3.org/2000/svg">
<g clip-path="url(#clip0_243_3800)">
<path d="M23 44C34.598 44 44 34.598 44 23C44 11.402 34.598 2 23 2C11.402 2 2 11.402 2 23C2 34.598 11.402 44 23 44Z" fill="white" stroke="#32B467" stroke-width="4"/>
<mask id="mask0_243_3800" style="mask-type:luminance" maskUnits="userSpaceOnUse" x="12" y="12" width="21" height="21">
<path d="M33 12H12V33H33V12Z" fill="white"/>
</mask>
<g mask="url(#mask0_243_3800)">
<path d="M30.6667 15.5H14.3334C14.024 15.5 13.7272 15.6229 13.5085 15.8417C13.2897 16.0605 13.1667 16.3572 13.1667 16.6667V28.3333C13.1667 28.6428 13.2897 28.9395 13.5085 29.1583C13.7272 29.3771 14.024 29.5 14.3334 29.5H23.0834L23.4159 29.0917L23.9584 28.4267L23.9059 28.3333H14.3334V16.6667H30.6667V21.66C31.1099 21.9469 31.5039 22.3034 31.8334 22.7158V16.6667C31.8334 16.3572 31.7105 16.0605 31.4917 15.8417C31.2729 15.6229 30.9762 15.5 30.6667 15.5Z" fill="black"/>
<path d="M16.0833 19H25.9999V19.9333H16.0833V19Z" fill="black"/>
<path d="M16.0833 21.3335H22.4999V22.2668H16.0833V21.3335Z" fill="black"/>
<path d="M16.0833 25.4165H21.9166V26.3498H16.0833V25.4165Z" fill="black"/>
<path d="M28.0183 22.0509C27.2718 22.045 26.5409 22.2644 25.9211 22.6804C25.3013 23.0965 24.8214 23.6898 24.5442 24.3829C24.2669 25.076 24.2052 25.8366 24.3671 26.5654C24.529 27.2941 24.907 27.957 25.4516 28.4676L24.3199 29.8501L24.8449 31.9559L26.9799 29.3542C27.6558 29.5541 28.375 29.5541 29.0508 29.3542L31.1858 31.9559L31.7108 29.8501L30.5791 28.4676C31.1237 27.957 31.5017 27.2941 31.6636 26.5654C31.8255 25.8366 31.7638 25.076 31.4865 24.3829C31.2093 23.6898 30.7294 23.0965 30.1096 22.6804C29.4898 22.2644 28.7589 22.045 28.0124 22.0509H28.0183ZM28.0183 28.2809C27.5226 28.274 27.04 28.1207 26.6311 27.8403C26.2223 27.5599 25.9055 27.1648 25.7206 26.7049C25.5356 26.2449 25.4908 25.7405 25.5918 25.2551C25.6927 24.7698 25.9348 24.3251 26.2878 23.9769C26.6408 23.6288 27.0888 23.3928 27.5755 23.2986C28.0622 23.2044 28.5659 23.2562 29.0233 23.4475C29.4807 23.6388 29.8713 23.961 30.146 24.3736C30.4208 24.7863 30.5674 25.271 30.5674 25.7667C30.5613 26.4377 30.2896 27.0789 29.8119 27.5501C29.3342 28.0212 28.6892 28.284 28.0183 28.2809Z" fill="black"/>
</g>
</g>
<defs>
<clipPath id="clip0_243_3800">
<rect width="46" height="46" fill="white"/>
</clipPath>
</defs>
</svg>
