<svg width="45" height="45" viewBox="0 0 45 45" fill="none" xmlns="http://www.w3.org/2000/svg">
<path d="M22.8247 42.6495C33.7737 42.6495 42.6495 33.7737 42.6495 22.8248C42.6495 11.8758 33.7737 3 22.8247 3C11.8758 3 3 11.8758 3 22.8248C3 33.7737 11.8758 42.6495 22.8247 42.6495Z" fill="white" stroke="url(#paint0_linear_283_3073)" stroke-width="4.125" stroke-miterlimit="10"/>
<path d="M15 32H24.62C25.1971 32.0003 25.7674 31.8756 26.2916 31.6344C26.8159 31.3933 27.2817 31.0414 27.657 30.603L32.759 24.651C32.8658 24.5266 32.9404 24.3778 32.9762 24.2178C33.012 24.0577 33.0079 23.8913 32.9642 23.7333C32.9206 23.5752 32.8387 23.4303 32.7258 23.3113C32.6129 23.1923 32.4726 23.1029 32.317 23.051L30.349 22.395C29.8734 22.2404 29.3669 22.2054 28.8745 22.2932C28.3821 22.3809 27.919 22.5886 27.526 22.898L24.341 25.445L23.724 24.21C23.3935 23.5443 22.8831 22.9844 22.2507 22.5938C21.6184 22.2032 20.8893 21.9975 20.146 22H15C13.897 22 13 22.897 13 24V30C13 31.103 13.897 32 15 32ZM15 24H20.146C20.909 24 21.594 24.423 21.935 25.105L22.382 26H18V28H24.014C24.1679 27.998 24.3191 27.9603 24.456 27.89L24.459 27.889L24.463 27.887H24.466L24.468 27.886H24.472L24.473 27.885C24.482 27.888 24.476 27.884 24.476 27.884C24.486 27.884 24.478 27.883 24.478 27.883H24.479L24.481 27.882L24.484 27.881L24.486 27.88L24.488 27.879L24.491 27.878L24.493 27.877C24.496 27.877 24.495 27.876 24.495 27.876L24.498 27.874L24.5 27.873L24.502 27.872L24.505 27.871L24.507 27.87H24.508L24.51 27.869L24.513 27.868L24.515 27.867C24.5185 27.8666 24.5197 27.8664 24.5199 27.8662C24.5202 27.866 24.518 27.866 24.518 27.866L24.52 27.865C24.5585 27.8418 24.5953 27.8157 24.63 27.787L28.776 24.47C29.038 24.262 29.399 24.197 29.716 24.303L30.273 24.489L26.14 29.312C25.9499 29.5279 25.716 29.7009 25.454 29.8195C25.1919 29.9381 24.9077 29.9996 24.62 30H15V24ZM27 13H26.983C26.82 13.002 25.977 13.039 25 13.705C24.049 13.057 23.226 13.005 23.032 13.001L23.002 13H22.998C22.197 13 21.443 13.313 20.879 13.878C20.313 14.445 20 15.198 20 16C20 16.802 20.313 17.555 20.861 18.104L24.275 21.69C24.3689 21.7875 24.4816 21.8651 24.6062 21.918C24.7308 21.9709 24.8648 21.9982 25.0002 21.9981C25.1356 21.998 25.2696 21.9706 25.3941 21.9175C25.5187 21.8643 25.6312 21.7866 25.725 21.689L29.121 18.121C29.688 17.555 30 16.802 30 16C30 15.198 29.687 14.445 29.122 13.879C28.8443 13.5996 28.514 13.378 28.1501 13.2271C27.7862 13.0762 27.3959 12.999 27.002 13H27ZM28 16C28 16.267 27.896 16.518 27.689 16.725L25 19.55L22.293 16.707C22.104 16.518 22 16.267 22 16C22 15.733 22.104 15.482 22.294 15.292C22.4748 15.1081 22.7211 15.0031 22.979 15C23.004 15.001 23.481 15.032 24.046 15.485C24.127 15.55 24.209 15.624 24.293 15.707L25 16.414L25.707 15.707C25.791 15.624 25.873 15.55 25.954 15.485C26.483 15.06 26.93 15.007 27.006 15.001C27.1363 15.001 27.2654 15.0268 27.3857 15.0769C27.506 15.127 27.6152 15.2005 27.707 15.293C27.896 15.482 28 15.733 28 16Z" fill="#33363F"/>
<path d="M15 32H24.62C25.1971 32.0003 25.7674 31.8756 26.2916 31.6344C26.8159 31.3933 27.2817 31.0414 27.657 30.603L32.759 24.651C32.8658 24.5266 32.9404 24.3778 32.9762 24.2178C33.012 24.0577 33.0079 23.8913 32.9642 23.7333C32.9206 23.5752 32.8387 23.4303 32.7258 23.3113C32.6129 23.1923 32.4726 23.1029 32.317 23.051L30.349 22.395C29.8734 22.2404 29.3669 22.2054 28.8745 22.2932C28.3821 22.3809 27.919 22.5886 27.526 22.898L24.341 25.445L23.724 24.21C23.3935 23.5443 22.8831 22.9844 22.2507 22.5938C21.6184 22.2032 20.8893 21.9975 20.146 22H15C13.897 22 13 22.897 13 24V30C13 31.103 13.897 32 15 32ZM15 24H20.146C20.909 24 21.594 24.423 21.935 25.105L22.382 26H18V28H24.014C24.1679 27.998 24.3191 27.9603 24.456 27.89L24.459 27.889L24.463 27.887H24.466L24.468 27.886H24.472L24.473 27.885C24.482 27.888 24.476 27.884 24.476 27.884C24.486 27.884 24.478 27.883 24.478 27.883H24.479L24.481 27.882L24.484 27.881L24.486 27.88L24.488 27.879L24.491 27.878L24.493 27.877C24.496 27.877 24.495 27.876 24.495 27.876L24.498 27.874L24.5 27.873L24.502 27.872L24.505 27.871L24.507 27.87H24.508L24.51 27.869L24.513 27.868L24.515 27.867C24.5185 27.8666 24.5197 27.8664 24.5199 27.8662C24.5202 27.866 24.518 27.866 24.518 27.866L24.52 27.865C24.5585 27.8418 24.5953 27.8157 24.63 27.787L28.776 24.47C29.038 24.262 29.399 24.197 29.716 24.303L30.273 24.489L26.14 29.312C25.9499 29.5279 25.716 29.7009 25.454 29.8195C25.1919 29.9381 24.9077 29.9996 24.62 30H15V24ZM27 13H26.983C26.82 13.002 25.977 13.039 25 13.705C24.049 13.057 23.226 13.005 23.032 13.001L23.002 13H22.998C22.197 13 21.443 13.313 20.879 13.878C20.313 14.445 20 15.198 20 16C20 16.802 20.313 17.555 20.861 18.104L24.275 21.69C24.3689 21.7875 24.4816 21.8651 24.6062 21.918C24.7308 21.9709 24.8648 21.9982 25.0002 21.9981C25.1356 21.998 25.2696 21.9706 25.3941 21.9175C25.5187 21.8643 25.6312 21.7866 25.725 21.689L29.121 18.121C29.688 17.555 30 16.802 30 16C30 15.198 29.687 14.445 29.122 13.879C28.8443 13.5996 28.514 13.378 28.1501 13.2271C27.7862 13.0762 27.3959 12.999 27.002 13H27ZM28 16C28 16.267 27.896 16.518 27.689 16.725L25 19.55L22.293 16.707C22.104 16.518 22 16.267 22 16C22 15.733 22.104 15.482 22.294 15.292C22.4748 15.1081 22.7211 15.0031 22.979 15C23.004 15.001 23.481 15.032 24.046 15.485C24.127 15.55 24.209 15.624 24.293 15.707L25 16.414L25.707 15.707C25.791 15.624 25.873 15.55 25.954 15.485C26.483 15.06 26.93 15.007 27.006 15.001C27.1363 15.001 27.2654 15.0268 27.3857 15.0769C27.506 15.127 27.6152 15.2005 27.707 15.293C27.896 15.482 28 15.733 28 16Z" stroke="black"/>
<defs>
<linearGradient id="paint0_linear_283_3073" x1="19.0297" y1="44.382" x2="26.628" y2="1.2675" gradientUnits="userSpaceOnUse">
<stop stop-color="#1F8654"/>
<stop offset="0.02" stop-color="#1F8C55"/>
<stop offset="0.16" stop-color="#21A65B"/>
<stop offset="0.3" stop-color="#23BA60"/>
<stop offset="0.47" stop-color="#24C863"/>
<stop offset="0.67" stop-color="#25D065"/>
<stop offset="1" stop-color="#25D366"/>
</linearGradient>
</defs>
</svg>
