<svg width="38" height="38" viewBox="0 0 38 38" fill="none" xmlns="http://www.w3.org/2000/svg">
<path fill-rule="evenodd" clip-rule="evenodd" d="M9.89575 8.70839C9.89564 7.65013 10.2218 6.61758 10.8298 5.75141C11.4378 4.88525 12.2981 4.2276 13.2934 3.86807C14.2887 3.50855 15.3706 3.46464 16.3918 3.74232C17.413 4.01999 18.3237 4.60576 18.9999 5.41981C19.835 4.40745 21.0252 3.75239 22.3273 3.58859C23.6293 3.4248 24.9448 3.76466 26.0045 4.53865C27.0643 5.31264 27.7883 6.46228 28.0285 7.75242C28.2686 9.04257 28.0068 10.3757 27.2966 11.4792H28.4999C29.6547 11.4792 30.7622 11.938 31.5788 12.7545C32.3953 13.5711 32.8541 14.6786 32.8541 15.8334V19.0001C32.8544 19.6058 32.6563 20.1949 32.29 20.6773C31.9237 21.1597 31.4094 21.5088 30.8258 21.6711C31.0538 24.5623 30.9208 27.4741 30.43 30.3367C30.2873 31.1686 29.8781 31.9316 29.2642 32.5107C28.6502 33.0899 27.8646 33.4538 27.0258 33.5477L25.5771 33.7092C21.2054 34.1978 16.7929 34.1978 12.4212 33.7092L10.974 33.5477C10.1352 33.4538 9.34966 33.0899 8.73567 32.5107C8.12169 31.9316 7.71253 31.1686 7.56984 30.3367C7.07916 27.4758 6.94619 24.5649 7.174 21.6711C6.59044 21.5088 6.07615 21.1597 5.70985 20.6773C5.34354 20.1949 5.1454 19.6058 5.14575 19.0001V15.8334C5.14575 14.6786 5.60449 13.5711 6.42106 12.7545C7.23762 11.938 8.34512 11.4792 9.49992 11.4792H10.7033C10.1741 10.6521 9.89377 9.69031 9.89575 8.70839ZM17.8124 8.70839C17.8124 7.97352 17.5205 7.26875 17.0009 6.74911C16.4812 6.22948 15.7765 5.93756 15.0416 5.93756C14.3067 5.93756 13.6019 6.22948 13.0823 6.74911C12.5627 7.26875 12.2708 7.97352 12.2708 8.70839C12.2708 9.44326 12.5627 10.148 13.0823 10.6677C13.6019 11.1873 14.3067 11.4792 15.0416 11.4792C15.7765 11.4792 16.4812 11.1873 17.0009 10.6677C17.5205 10.148 17.8124 9.44326 17.8124 8.70839ZM22.9583 11.4792C23.3221 11.4792 23.6824 11.4076 24.0186 11.2683C24.3548 11.1291 24.6602 10.925 24.9175 10.6677C25.1748 10.4104 25.3789 10.1049 25.5182 9.76874C25.6574 9.43257 25.7291 9.07226 25.7291 8.70839C25.7291 8.34452 25.6574 7.98421 25.5182 7.64804C25.3789 7.31186 25.1748 7.00641 24.9175 6.74911C24.6602 6.49182 24.3548 6.28772 24.0186 6.14847C23.6824 6.00923 23.3221 5.93756 22.9583 5.93756C22.2234 5.93756 21.5186 6.22948 20.999 6.74911C20.4793 7.26875 20.1874 7.97352 20.1874 8.70839C20.1874 9.44326 20.4793 10.148 20.999 10.6677C21.5186 11.1873 22.2234 11.4792 22.9583 11.4792ZM7.52075 15.8334C7.52075 14.7409 8.40742 13.8542 9.49992 13.8542H17.8124V19.3959H7.91659C7.8116 19.3959 7.71092 19.3542 7.63669 19.28C7.56246 19.2057 7.52075 19.105 7.52075 19.0001V15.8334ZM20.1874 21.7709H28.4508C28.6725 24.4942 28.5522 27.2381 28.0898 29.9346C28.0342 30.2591 27.8745 30.5568 27.6349 30.7827C27.3953 31.0086 27.0887 31.1505 26.7614 31.187L25.3143 31.3501C23.6106 31.5401 21.899 31.6525 20.1874 31.6889V21.7709ZM20.1874 19.3959H30.0833C30.1882 19.3959 30.2889 19.3542 30.3631 19.28C30.4374 19.2057 30.4791 19.105 30.4791 19.0001V15.8334C30.4791 14.7409 29.5924 13.8542 28.4999 13.8542H20.1874V19.3959ZM17.8124 21.7709V31.6889C16.0992 31.6533 14.3886 31.5402 12.6856 31.3501L11.2384 31.187C10.9114 31.1506 10.605 31.0089 10.3654 30.7833C10.1258 30.5577 9.96598 30.2604 9.91 29.9361C9.44798 27.2403 9.3267 24.497 9.549 21.7709H17.8124Z" fill="#0E7F3D"/>
</svg>
