<svg width="126" height="48" viewBox="0 0 126 48" fill="none" xmlns="http://www.w3.org/2000/svg">
<g clip-path="url(#clip0_283_8885)">
<path d="M23.7043 0.0311998C19.7977 0.0778924 16.1246 1.04287 12.8872 2.73937C19.0818 6.64599 21.7121 10.7861 22.646 14.3503C22.646 14.3503 22.6771 14.4437 22.7393 14.646C22.7705 14.7394 22.8016 14.8639 22.8483 15.004C22.8794 15.1441 22.9261 15.3153 22.9728 15.5021C23.0195 15.6888 23.0662 15.9067 23.1129 16.1402C23.1285 16.2647 23.1596 16.3892 23.1751 16.5137C23.1907 16.6382 23.2218 16.7783 23.2374 16.9184C23.253 17.0585 23.2685 17.1986 23.2841 17.3542C23.2997 17.5098 23.3152 17.6655 23.3152 17.8211C23.3308 17.9768 23.3308 18.148 23.3308 18.3192C23.3308 18.4904 23.3308 18.6772 23.3308 18.8484C23.3152 19.5799 23.2374 20.4048 23.0506 21.2764C22.9728 21.7122 22.8483 22.1635 22.7082 22.6305C22.5681 23.0974 22.3969 23.5643 22.2102 24.0468C21.4475 25.9612 20.2179 27.9534 18.8327 30.0235C18.1635 31.0351 17.5409 32.1091 16.9962 33.2919C16.467 34.4593 16.0156 35.72 15.7355 37.0429C15.4553 38.3503 15.3152 39.7355 15.4242 41.1052C15.4397 41.2764 15.4864 41.4943 15.5487 41.7433C16.4358 45.1052 19.3463 47.5487 22.786 47.9223C23.2218 47.969 23.6265 48.0001 23.9689 48.0001C37.2296 48.0001 47.9845 37.2452 47.9689 23.969C47.9534 10.6927 37.0117 -0.124442 23.7043 0.0311998ZM20.1246 33.3853C22.4748 30.8951 25.074 30.6772 25.074 30.6772C22.0857 30.3036 19.4553 33.0118 19.4553 33.0118C19.4553 33.0118 19.9534 27.6266 28.1713 29.183C24.8094 34.6149 21.4942 33.9923 20.1246 33.3853ZM25.9611 22.3659C30.6148 16.4982 36.2335 15.5799 36.2335 15.5799C29.6654 15.3153 24.4514 21.6966 24.4514 21.6966C24.4514 21.6966 24.5448 9.8989 42.6771 11.7666C36.358 24.1713 29.0584 23.4242 25.9611 22.3659Z" fill="#46A440"/>
<path d="M14.5681 46.0078C13.8677 44.4669 13.5253 42.8171 13.463 41.214C13.4008 39.6109 13.6187 38.0545 14.0078 36.607C14.3969 35.1595 14.9416 33.821 15.5953 32.5914C16.2335 31.3619 16.965 30.2412 17.7432 29.2296C18.4903 28.249 19.1907 27.2996 19.8132 26.3813C19.8599 26.3035 19.9222 26.2257 19.9689 26.1479C21.0739 24.4669 21.5097 22.428 21.1206 20.4514C21.1206 20.4358 21.1206 20.4202 21.1051 20.3891C20.4514 17.0895 18.6148 11.9533 13.323 8.607C13.323 8.607 19.1907 13.2918 20.0623 23.393C16.1245 22.7082 6.5214 19.0817 7.90662 0C7.90662 0 6.39689 3.33074 6.19455 7.90661C2.3502 12.1556 0 17.8055 0 24C0 33.93 6.02335 42.4436 14.6304 46.1012C14.5992 46.0856 14.5837 46.0389 14.5681 46.0078ZM7.37743 21.3074C17.9611 24.5447 15.2218 31.1595 15.2218 31.1595C15.2218 31.1595 13.8055 26.3658 10.0856 24.965C10.0856 24.965 12.9961 26.8016 14.2257 31.1907C12.249 31.0506 7.98444 29.7432 7.37743 21.3074Z" fill="#298929"/>
<path d="M54.303 9H58.4044L59.4579 13.7206H59.552L62.5998 9H67.228L61.0571 17.0118L60.1164 21.469H56.1091L57.0498 17.0118L54.303 9Z" fill="#565656"/>
<path d="M68.7144 20.3967C68.4698 20.7352 68.1312 21.0361 67.7173 21.2806C67.3034 21.5251 66.8518 21.6379 66.3627 21.6379C65.9112 21.6379 65.5161 21.5251 65.1586 21.3182C64.8011 21.1113 64.5378 20.8292 64.3308 20.4907C64.1427 20.1522 64.0298 19.776 64.0298 19.3811C64.0298 18.61 64.2744 18.027 64.7635 17.5944C65.2527 17.1619 66.0429 16.8422 67.134 16.5977L69.8244 16.0147C69.8244 15.9958 69.8244 15.977 69.8244 15.9582C69.8244 15.9394 69.8056 15.9206 69.8056 15.9018C69.8056 15.883 69.8056 15.8642 69.8056 15.8454C69.8056 15.8266 69.7868 15.8078 69.7868 15.789C69.7115 15.6385 69.5986 15.5257 69.4105 15.4504C69.2412 15.3752 68.9966 15.3188 68.6768 15.3188C68.3758 15.3188 68.0935 15.3564 67.8113 15.4504C67.5291 15.5445 67.2846 15.6573 67.0964 15.789L65.6101 13.9647C66.0052 13.6262 66.532 13.3253 67.1529 13.0808C67.7737 12.8363 68.4698 12.7234 69.2036 12.7234C70.0314 12.7234 70.7651 12.8739 71.3671 13.1748C71.9692 13.4757 72.4395 13.8707 72.7782 14.3596C73.098 14.8486 73.2673 15.3752 73.2673 15.9206C73.2673 16.0335 73.2485 16.1651 73.2297 16.3156C73.2109 16.4848 73.1921 16.6165 73.1733 16.7105C73.1544 16.7293 73.1544 16.7293 73.1544 16.7481C73.1544 16.7669 73.1544 16.7669 73.1544 16.7857L72.1385 21.4498H68.5827L68.7897 20.3778H68.7144V20.3967ZM68.4134 17.9706C68.1312 18.0458 67.943 18.1398 67.849 18.2339C67.7361 18.3467 67.6796 18.4784 67.6796 18.6476C67.6796 18.7417 67.6985 18.8357 67.7549 18.9109C67.8113 18.9861 67.8678 19.0426 67.9619 19.0802C68.0559 19.1178 68.15 19.1366 68.2629 19.1366C68.5263 19.1366 68.752 19.0426 68.959 18.8733C69.1659 18.704 69.3164 18.4407 69.3917 18.121L69.5046 17.7073L68.4134 17.9706Z" fill="#565656"/>
<path d="M75.4495 23.8196C75.6 23.9889 75.7881 24.1205 75.9951 24.2334C76.2021 24.3462 76.409 24.4026 76.616 24.4026C76.8041 24.4026 76.9546 24.365 77.0299 24.271C77.1239 24.1769 77.1616 24.0641 77.1616 23.9136C77.1616 23.782 77.1051 23.688 77.011 23.6127C76.917 23.5375 76.7853 23.4999 76.5971 23.4999C76.5031 23.4999 76.409 23.5187 76.3337 23.5375L75.8258 22.8605L76.6724 21.544C76.0515 21.4123 75.5248 21.2243 75.0732 20.9798C74.6217 20.7353 74.2831 20.4908 74.0573 20.2651C73.8315 20.0394 73.6622 19.8514 73.5681 19.7009L73.5493 19.6821L75.4307 18.1587C75.5436 18.3092 75.6753 18.4408 75.8258 18.5537C75.9763 18.6665 76.1644 18.7794 76.3714 18.8546C76.5783 18.9298 76.8041 18.9674 77.0487 18.9674C77.218 18.9674 77.3685 18.9486 77.4438 18.8922C77.5378 18.8358 77.5755 18.7794 77.5755 18.7041C77.5755 18.6289 77.5378 18.5349 77.4626 18.4597C77.3873 18.3844 77.2933 18.2904 77.1427 18.1964C76.9922 18.1023 76.8605 18.0083 76.6912 17.9143C76.3149 17.6698 75.9951 17.4441 75.7505 17.2372C75.5059 17.0303 75.2802 16.7858 75.092 16.4661C74.9039 16.1652 74.8098 15.8267 74.8098 15.4506C74.8098 14.9804 74.9603 14.529 75.2426 14.1153C75.5248 13.7015 75.9575 13.363 76.5407 13.1185C77.1051 12.874 77.8012 12.7424 78.5914 12.7424C79.3816 12.7424 80.0589 12.8552 80.6233 13.0621C81.1877 13.269 81.6392 13.5134 81.9402 13.7579C82.2413 14.0024 82.467 14.2281 82.5987 14.3974C82.6175 14.3974 82.6175 14.4162 82.6363 14.435L80.7926 15.9395L80.7738 15.9207C80.6797 15.8079 80.5292 15.695 80.3034 15.5822C80.0965 15.4694 79.8519 15.3941 79.5885 15.3941C79.4756 15.3941 79.3628 15.4129 79.2875 15.4317C79.2122 15.4506 79.1558 15.4882 79.1182 15.5258C79.0806 15.5634 79.0617 15.601 79.0617 15.6574C79.0617 15.7703 79.137 15.8643 79.2687 15.9771C79.4192 16.0712 79.6262 16.2216 79.9272 16.3721C80.3034 16.6354 80.6045 16.8611 80.8679 17.0679C81.1313 17.2748 81.3382 17.5381 81.5263 17.839C81.7145 18.1587 81.8085 18.4973 81.8085 18.8734C81.8085 19.3812 81.658 19.8326 81.357 20.2463C81.056 20.6601 80.6233 20.9798 80.0777 21.2243C79.5133 21.4688 78.8736 21.6004 78.121 21.6192L77.7636 22.127L77.8012 22.1458C77.8577 22.1646 77.9329 22.1834 78.027 22.2022C78.121 22.2398 78.2151 22.2775 78.3468 22.3151C78.6478 22.4655 78.8924 22.6536 79.0994 22.9169C79.3063 23.1802 79.4192 23.5187 79.4192 23.9325C79.4192 24.3274 79.3063 24.6847 79.0806 25.0233C78.8548 25.3618 78.535 25.6251 78.121 25.832C77.7071 26.0388 77.2556 26.1329 76.7476 26.1329C76.1832 26.1329 75.6941 26.0388 75.2614 25.832C74.8287 25.6251 74.5088 25.3806 74.2642 25.0985L75.4495 23.8196Z" fill="#565656"/>
<path d="M88.1676 12.9119L86.3239 21.4691H82.7681L84.6118 12.9119H88.1676Z" fill="#565656"/>
<path d="M94.6397 9L92.0057 21.469H88.45L91.0839 9H94.6397Z" fill="#565656"/>
<path d="M66.833 30.703L65.6853 36.1758C65.1209 36.6836 64.3684 37.1161 63.4653 37.4735C62.5622 37.8308 61.5651 38.0001 60.4739 38.0001C59.1946 38.0001 58.0658 37.7179 57.0874 37.1726C56.0903 36.6272 55.319 35.8749 54.7734 34.9533C54.2278 34.0318 53.9456 33.0162 53.9456 31.9066C53.9456 30.6089 54.2842 29.4053 54.9427 28.3333C55.6012 27.2613 56.523 26.3962 57.6707 25.7756C58.8371 25.155 60.1165 24.8352 61.5275 24.8352C62.6939 24.8352 63.6911 25.0421 64.5001 25.4371C65.3279 25.832 65.9299 26.2457 66.3438 26.6783C66.7577 27.1109 67.0399 27.4494 67.1716 27.6939L67.1904 27.7127L64.3495 30.0824L64.3307 30.0635C64.2555 29.9131 64.105 29.725 63.8792 29.4617C63.6534 29.1984 63.3148 28.9539 62.8821 28.7283C62.4494 28.5026 61.9414 28.3897 61.3582 28.3897C60.7373 28.3897 60.1729 28.5402 59.6461 28.8223C59.1193 29.1044 58.7054 29.5181 58.4044 30.0071C58.1034 30.5149 57.9341 31.0791 57.9341 31.6809C57.9341 32.1887 58.047 32.6589 58.2915 33.0726C58.5361 33.4864 58.8559 33.8249 59.3075 34.0694C59.7402 34.3139 60.2482 34.4267 60.8314 34.4267C61.1324 34.4267 61.4334 34.3891 61.6968 34.3327C61.979 34.2763 62.2048 34.2011 62.3929 34.1258L62.6751 32.9222H60.5304L61.0007 30.703H66.833Z" fill="#565656"/>
<path d="M73.9067 32.6403C73.8691 32.5462 73.8315 32.4522 73.775 32.3582C73.7186 32.2641 73.6622 32.1889 73.6057 32.1137C73.5117 32.0008 73.3988 31.9068 73.2483 31.8316C73.0978 31.7563 72.9284 31.6999 72.7403 31.6623C72.5522 31.6247 72.3264 31.6059 72.063 31.6059C71.7432 31.6059 71.4233 31.6435 71.1223 31.7187C70.8213 31.794 70.5579 31.888 70.3698 32.0008L69.5608 29.7252C69.937 29.4995 70.4074 29.3114 70.953 29.1422C71.4986 28.9917 72.1006 28.9165 72.7215 28.9165C73.6434 28.9165 74.4712 29.1046 75.1673 29.4995C75.8822 29.8945 76.409 30.4022 76.8041 31.0417C77.1803 31.6811 77.3685 32.377 77.3685 33.1292C77.3685 33.9756 77.1239 34.7842 76.6347 35.5177C76.1456 36.2512 75.4871 36.8342 74.6593 37.2668C73.8315 37.6993 72.9661 37.9062 72.0254 37.9062C71.1976 37.9062 70.445 37.7181 69.8054 37.3608C69.1469 36.9847 68.6389 36.4957 68.2814 35.8939C67.924 35.292 67.7358 34.6338 67.7358 33.9379C67.7358 33.449 67.8111 33.0164 67.9804 32.6403H73.9067ZM71.2728 34.2389C71.2728 34.3329 71.2728 34.4269 71.2916 34.5021C71.3104 34.5962 71.3481 34.6714 71.3857 34.7466C71.4421 34.8407 71.5174 34.9347 71.6115 35.0099C71.7055 35.0852 71.7996 35.1416 71.9313 35.1792C72.0442 35.2168 72.1759 35.2356 72.3264 35.2356C72.5333 35.2356 72.7403 35.198 72.9472 35.104C73.1354 35.0287 73.3047 34.8971 73.4552 34.7466C73.5869 34.5962 73.681 34.4269 73.7374 34.22H71.2728V34.2389Z" fill="#565656"/>
<path d="M84.1414 25.1736L81.5074 37.6426H77.9517L80.5856 25.1736H84.1414Z" fill="#565656"/>
<path d="M90.1243 32.6403C90.0867 32.5462 90.049 32.4522 89.9926 32.3582C89.9361 32.2641 89.8797 32.1889 89.8233 32.1137C89.7292 32.0008 89.6163 31.9068 89.4658 31.8316C89.3153 31.7563 89.146 31.6999 88.9578 31.6623C88.7697 31.6247 88.5439 31.6059 88.2805 31.6059C87.9607 31.6059 87.6409 31.6435 87.3398 31.7187C87.0388 31.794 86.7754 31.888 86.5873 32.0008L85.7783 29.7252C86.1546 29.4995 86.6249 29.3114 87.1705 29.1422C87.7161 28.9917 88.3182 28.9165 88.939 28.9165C89.8609 28.9165 90.6887 29.1046 91.3848 29.4995C92.0997 29.8945 92.6265 30.4022 93.0216 31.0417C93.3979 31.6811 93.586 32.377 93.586 33.1292C93.586 33.9756 93.3414 34.7842 92.8523 35.5177C92.3631 36.2512 91.7046 36.8342 90.8768 37.2668C90.049 37.6993 89.1836 37.9062 88.2429 37.9062C87.4151 37.9062 86.6625 37.7181 86.0229 37.3608C85.3644 36.9847 84.8564 36.4957 84.499 35.8939C84.1415 35.292 83.9534 34.6338 83.9534 33.9379C83.9534 33.449 84.0286 33.0164 84.198 32.6403H90.1243ZM87.4904 34.2389C87.4904 34.3329 87.4904 34.4269 87.5092 34.5021C87.528 34.5962 87.5656 34.6714 87.6032 34.7466C87.6597 34.8407 87.7349 34.9347 87.829 35.0099C87.9231 35.0852 88.0171 35.1416 88.1488 35.1792C88.2617 35.2168 88.3934 35.2356 88.5439 35.2356C88.7509 35.2356 88.9578 35.198 89.1648 35.104C89.3529 35.0287 89.5222 34.8971 89.6727 34.7466C89.8044 34.5962 89.8985 34.4269 89.955 34.22H87.4904V34.2389Z" fill="#565656"/>
<path d="M102.993 36.3827C102.579 36.8152 102.034 37.1726 101.394 37.4735C100.735 37.7744 100.02 37.9248 99.2303 37.9248C98.3084 37.9248 97.4806 37.718 96.7657 37.323C96.0508 36.9281 95.5052 36.3827 95.1101 35.7244C94.715 35.0474 94.5269 34.3327 94.5269 33.5617C94.5269 32.6777 94.7714 31.869 95.2606 31.1168C95.7498 30.3645 96.427 29.7815 97.2548 29.3301C98.1015 28.8787 99.0045 28.6531 99.9828 28.6531C100.924 28.6531 101.733 28.8411 102.391 29.2361C103.068 29.631 103.557 30.1012 103.896 30.6842L101.488 32.753C101.337 32.5085 101.112 32.3016 100.829 32.1135C100.547 31.9443 100.227 31.8502 99.8511 31.8502C99.5501 31.8502 99.2679 31.9255 99.0045 32.0571C98.7411 32.1887 98.553 32.3768 98.4025 32.6213C98.252 32.8658 98.1767 33.1103 98.1767 33.3924C98.1767 33.6369 98.2332 33.8626 98.346 34.0694C98.4589 34.2575 98.6282 34.4268 98.854 34.5396C99.0798 34.6525 99.3432 34.7089 99.663 34.7089C99.9452 34.7089 100.227 34.6525 100.51 34.5396C100.792 34.4268 101.036 34.2763 101.225 34.0882L102.993 36.3827Z" fill="#565656"/>
<path d="M110.255 32.6403C110.217 32.5462 110.18 32.4522 110.123 32.3582C110.067 32.2641 110.01 32.1889 109.954 32.1137C109.86 32.0008 109.747 31.9068 109.596 31.8316C109.446 31.7563 109.277 31.6999 109.088 31.6623C108.9 31.6247 108.675 31.6059 108.411 31.6059C108.091 31.6059 107.771 31.6435 107.47 31.7187C107.169 31.794 106.906 31.888 106.718 32.0008L105.909 29.7252C106.285 29.4995 106.756 29.3114 107.301 29.1422C107.847 28.9917 108.449 28.9165 109.07 28.9165C109.991 28.9165 110.819 29.1046 111.515 29.4995C112.23 29.8945 112.757 30.4022 113.152 31.0417C113.528 31.6811 113.717 32.377 113.717 33.1292C113.717 33.9756 113.472 34.7842 112.983 35.5177C112.494 36.2512 111.835 36.8342 111.007 37.2668C110.18 37.6993 109.314 37.9062 108.374 37.9062C107.546 37.9062 106.793 37.7181 106.153 37.3608C105.495 36.9847 104.987 36.4957 104.63 35.8939C104.272 35.292 104.084 34.6338 104.084 33.9379C104.084 33.449 104.159 33.0164 104.329 32.6403H110.255ZM107.621 34.2389C107.621 34.3329 107.621 34.4269 107.64 34.5021C107.659 34.5962 107.696 34.6714 107.734 34.7466C107.79 34.8407 107.866 34.9347 107.96 35.0099C108.054 35.0852 108.148 35.1416 108.279 35.1792C108.392 35.2168 108.524 35.2356 108.675 35.2356C108.881 35.2356 109.088 35.198 109.295 35.104C109.484 35.0287 109.653 34.8971 109.803 34.7466C109.935 34.5962 110.029 34.4269 110.086 34.22H107.621V34.2389Z" fill="#565656"/>
<path d="M120.471 25.1736L119.135 31.4928L121.731 28.9162H125.946L122.033 32.7904L123.895 37.6614H120.151L119.135 34.878L118.251 35.7055L117.837 37.6614H114.281L116.915 25.1924H120.471V25.1736Z" fill="#565656"/>
</g>
<defs>
<clipPath id="clip0_283_8885">
<rect width="126" height="48" fill="white"/>
</clipPath>
</defs>
</svg>
