<svg width="11" height="16" viewBox="0 0 11 16" fill="none" xmlns="http://www.w3.org/2000/svg">
<path fill-rule="evenodd" clip-rule="evenodd" d="M0.250055 4.05957C0.96604 5.84126 -2.4217 14.0939 4.15209 13.3814C8.44855 12.008 4.93244 4.69409 0.250055 4.05957Z" fill="#479356"/>
<path fill-rule="evenodd" clip-rule="evenodd" d="M4.27444 14.8318C4.27444 14.8318 1.88036 6.32135 0.736572 4.57861C0.736572 4.57861 4.35243 10.7895 5.10206 15.1548L4.27444 14.8318Z" fill="#607363"/>
<path fill-rule="evenodd" clip-rule="evenodd" d="M10.2306 0C9.34747 2.49155 14.4558 13.6489 5.39598 13.0451C-0.576115 11.4018 3.84103 1.14049 10.2306 0Z" fill="#67BE5E"/>
<path fill-rule="evenodd" clip-rule="evenodd" d="M5.30893 15.0466C5.30893 15.0466 8.11939 3.20378 9.59204 0.741211C9.59204 0.741211 4.84886 9.95256 4.06348 15.9998L5.30893 15.0466Z" fill="#607363"/>
</svg>
