<svg width="31" height="31" viewBox="0 0 31 31" fill="none" xmlns="http://www.w3.org/2000/svg">
<path d="M21.3102 6.01701C21.1718 6.01701 21.0595 6.12925 21.0595 6.26772V8.77481C21.0595 8.91327 21.1718 9.02551 21.3102 9.02551H23.8173C23.9558 9.02551 24.068 8.91327 24.068 8.77481V6.26772C24.068 6.12925 23.9558 6.01701 23.8173 6.01701H21.3102ZM21.0595 24.068V23.3159C21.0595 22.9005 21.3963 22.5638 21.8117 22.5638C22.227 22.5638 22.5638 22.9005 22.5638 23.3159V24.068H24.068V23.3159C24.068 22.9005 24.4048 22.5638 24.8202 22.5638C25.2355 22.5638 25.5723 22.9005 25.5723 23.3159V24.8202C25.5723 25.2355 25.2355 25.5723 24.8202 25.5723H18.8032C18.3878 25.5723 18.051 25.2355 18.051 24.8202V23.3159C18.051 22.9005 18.3878 22.5638 18.8032 22.5638C19.2185 22.5638 19.5553 22.9005 19.5553 23.3159V24.068H21.0595ZM16.5468 13.5383H17.2989C17.7143 13.5383 18.051 13.875 18.051 14.2904C18.051 14.7058 17.7143 15.0425 17.2989 15.0425H14.2904C13.875 15.0425 13.5383 14.7058 13.5383 14.2904C13.5383 13.875 13.875 13.5383 14.2904 13.5383H15.0425V12.034H12.7861C12.3708 12.034 12.034 11.6973 12.034 11.2819C12.034 10.8665 12.3708 10.5298 12.7861 10.5298H17.2989C17.7143 10.5298 18.051 10.8665 18.051 11.2819C18.051 11.6973 17.7143 12.034 17.2989 12.034H16.5468V13.5383ZM24.068 15.0425H23.3159C22.9005 15.0425 22.5638 14.7058 22.5638 14.2904C22.5638 13.875 22.9005 13.5383 23.3159 13.5383H24.068V12.7861C24.068 12.3708 24.4048 12.034 24.8202 12.034C25.2355 12.034 25.5723 12.3708 25.5723 12.7861V15.7946C25.5723 16.21 25.2355 16.5468 24.8202 16.5468C24.4048 16.5468 24.068 16.21 24.068 15.7946V15.0425ZM16.5468 18.051H15.7946C15.3793 18.051 15.0425 17.7143 15.0425 17.2989C15.0425 16.8835 15.3793 16.5468 15.7946 16.5468H17.2989C17.7143 16.5468 18.051 16.8835 18.051 17.2989V20.3074C18.051 20.7228 17.7143 21.0595 17.2989 21.0595H12.7861C12.3708 21.0595 12.034 20.7228 12.034 20.3074C12.034 19.892 12.3708 19.5553 12.7861 19.5553H16.5468V18.051ZM21.3102 4.51276H23.8173C24.7866 4.51276 25.5723 5.29848 25.5723 6.26772V8.77481C25.5723 9.74404 24.7866 10.5298 23.8173 10.5298H21.3102C20.341 10.5298 19.5553 9.74404 19.5553 8.77481V6.26772C19.5553 5.29848 20.341 4.51276 21.3102 4.51276ZM6.26772 4.51276H8.77481C9.74404 4.51276 10.5298 5.29848 10.5298 6.26772V8.77481C10.5298 9.74404 9.74404 10.5298 8.77481 10.5298H6.26772C5.29848 10.5298 4.51276 9.74404 4.51276 8.77481V6.26772C4.51276 5.29848 5.29848 4.51276 6.26772 4.51276ZM6.26772 6.01701C6.12925 6.01701 6.01701 6.12925 6.01701 6.26772V8.77481C6.01701 8.91327 6.12925 9.02551 6.26772 9.02551H8.77481C8.91327 9.02551 9.02551 8.91327 9.02551 8.77481V6.26772C9.02551 6.12925 8.91327 6.01701 8.77481 6.01701H6.26772ZM6.26772 19.5553H8.77481C9.74404 19.5553 10.5298 20.341 10.5298 21.3102V23.8173C10.5298 24.7866 9.74404 25.5723 8.77481 25.5723H6.26772C5.29848 25.5723 4.51276 24.7866 4.51276 23.8173V21.3102C4.51276 20.341 5.29848 19.5553 6.26772 19.5553ZM6.26772 21.0595C6.12925 21.0595 6.01701 21.1718 6.01701 21.3102V23.8173C6.01701 23.9558 6.12925 24.068 6.26772 24.068H8.77481C8.91327 24.068 9.02551 23.9558 9.02551 23.8173V21.3102C9.02551 21.1718 8.91327 21.0595 8.77481 21.0595H6.26772ZM16.5468 6.01701H12.7861C12.3708 6.01701 12.034 5.68027 12.034 5.26488C12.034 4.84949 12.3708 4.51276 12.7861 4.51276H17.2989C17.7143 4.51276 18.051 4.84949 18.051 5.26488V8.27339C18.051 8.68878 17.7143 9.02551 17.2989 9.02551C16.8835 9.02551 16.5468 8.68878 16.5468 8.27339V6.01701ZM12.7861 9.02551C12.3708 9.02551 12.034 8.68878 12.034 8.27339C12.034 7.858 12.3708 7.52126 12.7861 7.52126H14.2904C14.7058 7.52126 15.0425 7.858 15.0425 8.27339C15.0425 8.68878 14.7058 9.02551 14.2904 9.02551H12.7861ZM5.26488 18.051C4.84949 18.051 4.51276 17.7143 4.51276 17.2989C4.51276 16.8835 4.84949 16.5468 5.26488 16.5468H8.27339C8.68878 16.5468 9.02551 16.8835 9.02551 17.2989C9.02551 17.7143 8.68878 18.051 8.27339 18.051H5.26488ZM11.2819 18.051C10.8665 18.051 10.5298 17.7143 10.5298 17.2989C10.5298 16.8835 10.8665 16.5468 11.2819 16.5468H12.7861C13.2015 16.5468 13.5383 16.8835 13.5383 17.2989C13.5383 17.7143 13.2015 18.051 12.7861 18.051H11.2819ZM13.5383 24.068V24.8202C13.5383 25.2355 13.2015 25.5723 12.7861 25.5723C12.3708 25.5723 12.034 25.2355 12.034 24.8202V23.3159C12.034 22.9005 12.3708 22.5638 12.7861 22.5638H15.7946C16.21 22.5638 16.5468 22.9005 16.5468 23.3159C16.5468 23.7313 16.21 24.068 15.7946 24.068H13.5383ZM10.5298 13.5383H11.2819C11.6973 13.5383 12.034 13.875 12.034 14.2904C12.034 14.7058 11.6973 15.0425 11.2819 15.0425H9.77764C9.36225 15.0425 9.02551 14.7058 9.02551 14.2904V13.5383H8.27339C7.858 13.5383 7.52126 13.2015 7.52126 12.7861C7.52126 12.3708 7.858 12.034 8.27339 12.034H9.77764C10.193 12.034 10.5298 12.3708 10.5298 12.7861V13.5383ZM4.51276 12.7861C4.51276 12.3708 4.84949 12.034 5.26488 12.034C5.68027 12.034 6.01701 12.3708 6.01701 12.7861V14.2904C6.01701 14.7058 5.68027 15.0425 5.26488 15.0425C4.84949 15.0425 4.51276 14.7058 4.51276 14.2904V12.7861ZM19.5553 12.7861C19.5553 12.3708 19.892 12.034 20.3074 12.034C20.7228 12.034 21.0595 12.3708 21.0595 12.7861V15.7946C21.0595 16.21 20.7228 16.5468 20.3074 16.5468C19.892 16.5468 19.5553 16.21 19.5553 15.7946V12.7861ZM22.5638 19.5553V18.8032C22.5638 18.3878 22.9005 18.051 23.3159 18.051H24.8202C25.2355 18.051 25.5723 18.3878 25.5723 18.8032C25.5723 19.2185 25.2355 19.5553 24.8202 19.5553H24.068V20.3074C24.068 20.7228 23.7313 21.0595 23.3159 21.0595H20.3074C19.892 21.0595 19.5553 20.7228 19.5553 20.3074V18.8032C19.5553 18.3878 19.892 18.051 20.3074 18.051C20.7228 18.051 21.0595 18.3878 21.0595 18.8032V19.5553H22.5638ZM1.50425 6.76913C1.50425 7.18452 1.16751 7.52126 0.752126 7.52126C0.336738 7.52126 0 7.18452 0 6.76913V3.76063C0 1.68369 1.68369 0 3.76063 0H6.76913C7.18452 0 7.52126 0.336738 7.52126 0.752126C7.52126 1.16751 7.18452 1.50425 6.76913 1.50425H3.76063C2.51447 1.50425 1.50425 2.51447 1.50425 3.76063V6.76913ZM23.3159 1.50425C22.9005 1.50425 22.5638 1.16751 22.5638 0.752126C22.5638 0.336738 22.9005 0 23.3159 0H26.3244C28.4014 0 30.085 1.68369 30.085 3.76063V6.76913C30.085 7.18452 29.7483 7.52126 29.3329 7.52126C28.9175 7.52126 28.5808 7.18452 28.5808 6.76913V3.76063C28.5808 2.51447 27.5706 1.50425 26.3244 1.50425H23.3159ZM6.76913 28.5808C7.18452 28.5808 7.52126 28.9175 7.52126 29.3329C7.52126 29.7483 7.18452 30.085 6.76913 30.085H3.76063C1.68369 30.085 0 28.4014 0 26.3244V23.3159C0 22.9005 0.336738 22.5638 0.752126 22.5638C1.16751 22.5638 1.50425 22.9005 1.50425 23.3159V26.3244C1.50425 27.5706 2.51447 28.5808 3.76063 28.5808H6.76913ZM28.5808 23.3159C28.5808 22.9005 28.9175 22.5638 29.3329 22.5638C29.7483 22.5638 30.085 22.9005 30.085 23.3159V26.3244C30.085 28.4014 28.4014 30.085 26.3244 30.085H23.3159C22.9005 30.085 22.5638 29.7483 22.5638 29.3329C22.5638 28.9175 22.9005 28.5808 23.3159 28.5808H26.3244C27.5706 28.5808 28.5808 27.5706 28.5808 26.3244V23.3159Z" fill="#0E7F3D"/>
</svg>
