<svg width="30" height="30" viewBox="0 0 30 30" fill="none" xmlns="http://www.w3.org/2000/svg">
<path d="M24.1852 6.19442C23.4166 4.35928 22.1228 2.79221 20.4663 1.6901C18.8099 0.587991 16.8646 0 14.875 0C12.8854 0 10.9402 0.587991 9.28376 1.6901C7.6273 2.79221 6.33349 4.35928 5.56488 6.19442C3.91079 6.96041 2.50901 8.18158 1.52353 9.71507C0.538046 11.2486 0.00961131 13.031 3.81828e-05 14.8538C-0.0145712 20.0096 4.16504 24.31 9.31551 24.4429C10.8736 24.4835 12.4178 24.141 13.8125 23.4454V28.6929C13.8125 28.9746 13.9245 29.2449 14.1237 29.4442C14.323 29.6434 14.5932 29.7554 14.875 29.7554C15.1568 29.7554 15.4271 29.6434 15.6263 29.4442C15.8256 29.2449 15.9375 28.9746 15.9375 28.6929V23.4454C17.2574 24.1037 18.7126 24.4452 20.1875 24.4429H20.4346C25.585 24.31 29.7647 20.0122 29.75 14.8565C29.7411 13.0331 29.213 11.2501 28.2275 9.71606C27.2419 8.18202 25.8398 6.96047 24.1852 6.19442ZM20.3801 22.3179C18.8457 22.3607 17.336 21.9243 16.0611 21.0694C16.0194 21.0429 15.9783 21.0176 15.9375 20.9937V15.5365L21.7255 12.6438C21.8504 12.5814 21.9617 12.4949 22.0532 12.3895C22.1447 12.284 22.2145 12.1615 22.2587 12.0291C22.3028 11.8966 22.3204 11.7568 22.3105 11.6175C22.3007 11.4782 22.2634 11.3423 22.201 11.2174C22.1385 11.0925 22.0521 10.9812 21.9466 10.8897C21.8412 10.7982 21.7187 10.7284 21.5862 10.6842C21.4538 10.6401 21.3139 10.6225 21.1747 10.6324C21.0354 10.6422 20.8994 10.6795 20.7746 10.7419L15.9375 13.1618V9.56786C15.9375 9.28606 15.8256 9.01581 15.6263 8.81656C15.4271 8.6173 15.1568 8.50536 14.875 8.50536C14.5932 8.50536 14.323 8.6173 14.1237 8.81656C13.9245 9.01581 13.8125 9.28606 13.8125 9.56786V16.3493L8.97551 13.9294C8.7233 13.8033 8.43133 13.7826 8.16383 13.8717C7.89633 13.9609 7.6752 14.1527 7.5491 14.4049C7.423 14.6571 7.40225 14.9491 7.49142 15.2166C7.58058 15.4841 7.77237 15.7052 8.02457 15.8313L13.8125 18.7239V20.9897C13.7709 21.0136 13.7298 21.0389 13.689 21.0654C12.4142 21.921 10.9047 22.3587 9.36996 22.3179C7.69019 22.2759 6.07411 21.6664 4.78502 20.5886C3.49593 19.5108 2.60979 18.0282 2.27096 16.3824C1.93213 14.7366 2.16058 13.0246 2.9191 11.5253C3.67761 10.0259 4.92149 8.82759 6.44809 8.12551C6.9309 7.9043 7.31264 7.50928 7.51723 7.01918C8.1237 5.56975 9.14513 4.33196 10.4531 3.46139C11.7611 2.59083 13.2972 2.12635 14.8684 2.12635C16.4396 2.12635 17.9757 2.59083 19.2837 3.46139C20.5917 4.33196 21.6131 5.56975 22.2196 7.01918C22.4242 7.50928 22.8059 7.9043 23.2887 8.12551C24.8153 8.82759 26.0592 10.0259 26.8177 11.5253C27.5762 13.0246 27.8047 14.7366 27.4658 16.3824C27.127 18.0282 26.2409 19.5108 24.9518 20.5886C23.6627 21.6664 22.0466 22.2759 20.3668 22.3179H20.3801Z" fill="#0E7F3D"/>
</svg>
