<svg width="33" height="33" viewBox="0 0 33 33" fill="none" xmlns="http://www.w3.org/2000/svg">
<path d="M25.0757 8.14038C23.3707 5.25168 20.9502 2.85098 18.0476 1.16977L17.5312 0.871094L17.0148 1.16977C14.0628 2.8734 11.6116 5.32447 9.90778 8.27634C8.20395 11.2282 7.30761 14.5768 7.30896 17.9851C7.30896 18.2071 7.31283 18.4326 7.32037 18.6554C7.42298 21.6754 8.57791 24.2166 10.6603 26.0042C12.2539 27.3722 14.2979 28.2073 16.5002 28.4066V31.9687H18.5627V15.4687H16.5V26.3309C13.0154 25.9272 9.54722 23.4656 9.38152 18.5853C9.37468 18.3858 9.3712 18.1838 9.3712 17.9851C9.37734 15.0421 10.1289 12.1487 11.5559 9.57478C12.9828 7.00088 15.0385 4.83043 17.5312 3.26598C20.0239 4.83046 22.0796 7.00093 23.5064 9.57482C24.9333 12.1487 25.6849 15.0421 25.691 17.9851C25.691 18.1838 25.6875 18.3858 25.6807 18.5853C25.5482 22.4894 23.3019 24.8455 20.6247 25.8386V28.0215C22.014 27.6277 23.3022 26.9397 24.4021 26.0041C26.4845 24.2165 27.6395 21.6753 27.7421 18.6553C27.7496 18.4326 27.7535 18.2071 27.7535 17.985C27.7553 14.5233 26.8307 11.1242 25.0757 8.14038Z" fill="#0E7F3D"/>
</svg>
