<svg width="31" height="31" viewBox="0 0 31 31" fill="none" xmlns="http://www.w3.org/2000/svg">
<path d="M15.5 3.229C17.0192 3.22854 18.4984 3.71505 19.7207 4.61712C20.943 5.51919 21.844 6.78932 22.2913 8.24109C22.7387 9.69285 22.7089 11.2498 22.2064 12.6834C21.7038 14.117 20.7549 15.3517 19.499 16.2064C21.6789 17.0059 23.5696 18.4396 24.9278 20.3228C26.286 22.2061 27.0494 24.4527 27.1199 26.7735C27.1264 26.9023 27.1072 27.0312 27.0634 27.1525C27.0195 27.2738 26.9518 27.3851 26.8644 27.4799C26.7769 27.5747 26.6714 27.6511 26.554 27.7045C26.4366 27.758 26.3097 27.7875 26.1808 27.7913C26.0519 27.7951 25.9235 27.7731 25.8032 27.7266C25.6828 27.6801 25.573 27.61 25.4801 27.5205C25.3873 27.431 25.3132 27.3238 25.2623 27.2053C25.2114 27.0868 25.1846 26.9593 25.1837 26.8303C25.1067 24.3135 24.0529 21.9254 22.2453 20.1723C20.4378 18.4192 18.0187 17.4388 15.5007 17.4388C12.9826 17.4388 10.5635 18.4192 8.75602 20.1723C6.9485 21.9254 5.89462 24.3135 5.8177 26.8303C5.80999 27.0873 5.70053 27.3306 5.51341 27.5068C5.32628 27.6831 5.07681 27.7777 4.81988 27.77C4.56296 27.7623 4.31961 27.6529 4.14339 27.4657C3.96716 27.2786 3.87249 27.0291 3.8802 26.7722C3.95091 24.4516 4.71448 22.2053 6.07262 20.3223C7.43077 18.4393 9.32134 17.0058 11.501 16.2064C10.2451 15.3517 9.29626 14.117 8.7937 12.6834C8.29114 11.2498 8.26135 9.69285 8.70872 8.24109C9.15608 6.78932 10.057 5.51919 11.2793 4.61712C12.5016 3.71505 13.9809 3.22854 15.5 3.229ZM10.3334 10.3332C10.3334 11.7035 10.8777 13.0176 11.8466 13.9866C12.8156 14.9555 14.1297 15.4998 15.5 15.4998C16.8703 15.4998 18.1845 14.9555 19.1534 13.9866C20.1224 13.0176 20.6667 11.7035 20.6667 10.3332C20.6667 8.96289 20.1224 7.64872 19.1534 6.67979C18.1845 5.71085 16.8703 5.1665 15.5 5.1665C14.1297 5.1665 12.8156 5.71085 11.8466 6.67979C10.8777 7.64872 10.3334 8.96289 10.3334 10.3332Z" fill="#0E7F3D"/>
</svg>
