<svg width="261" height="306" viewBox="0 0 261 306" fill="none" xmlns="http://www.w3.org/2000/svg">
<path d="M42.915 39.806C55.4236 6.58347 80.0051 0.52084 93.7244 0.52955C133.358 0.538261 148.663 13.491 174.124 42.6283C198 69.9536 215.038 65.8335 228.749 76.3212C251.1 93.4289 263.8 152.487 220.5 188.602C159.115 239.812 119.682 242.922 66.6342 226.389C30.8594 215.239 0.877279 184.769 0.154292 151.033C-1.23942 85.8506 29.3873 75.7375 42.915 39.806Z" fill="#B3FFD1"/>
<mask id="mask0_0_317" style="mask-type:alpha" maskUnits="userSpaceOnUse" x="0" y="0" width="250" height="236">
<path d="M42.915 39.806C55.4236 6.58347 80.0051 0.52084 93.7244 0.52955C133.358 0.538261 148.663 13.491 174.124 42.6283C198 69.9536 215.038 65.8335 228.749 76.3212C251.1 93.4289 263.8 152.487 220.5 188.602C159.115 239.812 119.682 242.922 66.6342 226.389C30.8594 215.239 0.877279 184.769 0.154292 151.033C-1.23942 85.8506 29.3873 75.7375 42.915 39.806Z" fill="#FFF3F3"/>
</mask>
<g mask="url(#mask0_0_317)">
<path d="M77.4876 53.6647H156.624C165.474 53.6647 172.652 60.8423 172.652 69.6923V235.814C172.652 244.664 165.474 251.841 156.624 251.841H77.4876C68.6376 251.841 61.46 244.664 61.46 235.814V69.6836C61.46 60.8336 68.6376 53.6647 77.4876 53.6647Z" fill="black"/>
<path d="M79.4476 60.8597H154.656C160.614 60.8597 165.448 65.6941 165.448 71.6522V233.845C165.448 239.803 160.614 244.638 154.656 244.638H79.4476C73.4895 244.638 68.655 239.803 68.655 233.845V71.6522C68.655 65.6854 73.4895 60.8597 79.4476 60.8597Z" fill="#32B768"/>
<path d="M81.4075 102.532H152.696C155.405 102.532 157.6 104.727 157.6 107.436V149.291C157.6 152 155.405 154.195 152.696 154.195H81.4075C78.6985 154.195 76.5034 152 76.5034 149.291V107.436C76.5034 104.727 78.6985 102.532 81.4075 102.532Z" fill="white"/>
<path d="M81.4075 161.39H152.696C155.405 161.39 157.6 163.585 157.6 166.294V182.644C157.6 185.353 155.405 187.548 152.696 187.548H81.4075C78.6985 187.548 76.5034 185.353 76.5034 182.644V166.294C76.5034 163.585 78.6985 161.39 81.4075 161.39Z" fill="white"/>
<path d="M81.4075 194.743H152.696C155.405 194.743 157.6 196.938 157.6 199.647V215.997C157.6 218.706 155.405 220.901 152.696 220.901H81.4075C78.6985 220.901 76.5034 218.706 76.5034 215.997V199.647C76.5034 196.938 78.6985 194.743 81.4075 194.743Z" fill="white"/>
<mask id="mask1_0_317" style="mask-type:alpha" maskUnits="userSpaceOnUse" x="68" y="60" width="98" height="185">
<path d="M79.4476 60.8597H154.656C160.614 60.8597 165.448 65.6941 165.448 71.6522V233.845C165.448 239.803 160.614 244.638 154.656 244.638H79.4476C73.4895 244.638 68.655 239.803 68.655 233.845V71.6522C68.655 65.6854 73.4895 60.8597 79.4476 60.8597Z" fill="white"/>
</mask>
<g mask="url(#mask1_0_317)">
<path d="M81.4075 228.096H152.696C155.405 228.096 157.6 230.291 157.6 233V249.35C157.6 252.059 155.405 254.254 152.696 254.254H81.4075C78.6985 254.254 76.5034 252.059 76.5034 249.35V233C76.5034 230.3 78.6985 228.096 81.4075 228.096Z" fill="#32B768"/>
</g>
<path d="M135.701 73.2188H99.6476C98.6546 73.2188 97.8445 72.4087 97.8445 71.4157C97.8445 70.4227 98.6546 69.6126 99.6476 69.6126H135.701C136.694 69.6126 137.504 70.4227 137.504 71.4157C137.504 72.4087 136.694 73.2188 135.701 73.2188Z" fill="#0E7F3D"/>
<path d="M141.084 140.449H94.2558C93.2627 140.449 92.4526 139.639 92.4526 138.646C92.4526 137.653 93.2627 136.843 94.2558 136.843H141.093C142.086 136.843 142.896 137.653 142.896 138.646C142.896 139.639 142.086 140.449 141.084 140.449Z" fill="#0E7F3D"/>
<path d="M132.408 146.939H102.932C101.939 146.939 101.128 146.129 101.128 145.136C101.128 144.142 101.939 143.332 102.932 143.332H132.408C133.401 143.332 134.212 144.142 134.212 145.136C134.212 146.129 133.41 146.939 132.408 146.939Z" fill="#0E7F3D"/>
<path d="M96.0938 182.043H85.3796C84.1601 182.043 83.1671 181.05 83.1671 179.83V169.116C83.1671 167.897 84.1601 166.904 85.3796 166.904H96.0938C97.3133 166.904 98.3063 167.897 98.3063 169.116V179.83C98.3063 181.05 97.3133 182.043 96.0938 182.043Z" fill="#0E7F3D"/>
<path d="M135.832 170.998H103.942C103.28 170.998 102.749 170.466 102.749 169.804C102.749 169.142 103.28 168.611 103.942 168.611H135.832C136.494 168.611 137.025 169.142 137.025 169.804C137.025 170.466 136.494 170.998 135.832 170.998Z" fill="#32B768"/>
<path d="M135.832 175.745H103.942C103.28 175.745 102.749 175.213 102.749 174.551C102.749 173.889 103.28 173.358 103.942 173.358H135.832C136.494 173.358 137.025 173.889 137.025 174.551C137.025 175.205 136.494 175.745 135.832 175.745Z" fill="#32B768"/>
<path d="M131.181 180.335H103.942C103.28 180.335 102.749 179.804 102.749 179.142C102.749 178.48 103.28 177.949 103.942 177.949H131.181C131.843 177.949 132.374 178.48 132.374 179.142C132.383 179.795 131.843 180.335 131.181 180.335Z" fill="#32B768"/>
<path d="M96.0938 215.396H85.3796C84.1601 215.396 83.1671 214.403 83.1671 213.183V202.469C83.1671 201.25 84.1601 200.257 85.3796 200.257H96.0938C97.3133 200.257 98.3063 201.25 98.3063 202.469V213.183C98.3063 214.403 97.3133 215.396 96.0938 215.396Z" fill="#0E7F3D"/>
<path d="M135.832 204.368H103.942C103.28 204.368 102.749 203.837 102.749 203.175C102.749 202.513 103.28 201.981 103.942 201.981H135.832C136.494 201.981 137.025 202.513 137.025 203.175C137.025 203.837 136.494 204.368 135.832 204.368Z" fill="#32B768"/>
<path d="M135.832 209.115H103.942C103.28 209.115 102.749 208.584 102.749 207.922C102.749 207.26 103.28 206.729 103.942 206.729H135.832C136.494 206.729 137.025 207.26 137.025 207.922C137.025 208.584 136.494 209.115 135.832 209.115Z" fill="#32B768"/>
<path d="M131.181 213.671H103.942C103.28 213.671 102.749 213.14 102.749 212.478C102.749 211.816 103.28 211.284 103.942 211.284H131.181C131.843 211.284 132.374 211.816 132.374 212.478C132.383 213.131 131.843 213.671 131.181 213.671Z" fill="#32B768"/>
</g>
<path d="M16.8367 215.998C23.7402 215.998 29.3366 210.402 29.3366 203.498C29.3366 196.595 23.7402 190.999 16.8367 190.999C9.93327 190.999 4.33691 196.595 4.33691 203.498C4.33691 210.402 9.93327 215.998 16.8367 215.998Z" fill="#0E7F3D"/>
<path d="M260.943 133.002C261.396 131.416 259.097 129.282 255.386 127.514C254.663 127.166 254.236 126.408 254.332 125.606C254.811 121.521 254.219 118.437 252.633 117.985C251.048 117.532 248.914 119.831 247.146 123.542C246.797 124.265 246.039 124.692 245.238 124.596C241.153 124.117 238.069 124.709 237.616 126.295C237.163 127.88 239.463 130.014 243.173 131.782C243.896 132.131 244.323 132.888 244.227 133.69C243.748 137.775 244.341 140.859 245.926 141.312C247.511 141.765 249.646 139.465 251.414 135.754C251.762 135.031 252.52 134.605 253.321 134.7C257.398 135.179 260.482 134.587 260.943 133.002Z" fill="#32B768"/>
<path d="M75.6236 9.30999C75.2752 7.69851 72.2352 6.90584 68.1237 7.1149C67.3224 7.15845 66.5907 6.68807 66.2945 5.93896C64.7701 2.11497 62.7841 -0.31531 61.1813 0.033117C59.5699 0.381544 58.7772 3.42157 58.9862 7.53301C59.0298 8.33439 58.5594 9.06609 57.8103 9.36225C53.9863 10.8866 51.556 12.8727 51.9045 14.4754C52.2529 16.0869 55.2929 16.8796 59.4043 16.6705C60.2057 16.627 60.9374 17.0973 61.2336 17.8465C62.758 21.6704 64.744 24.1007 66.3468 23.7523C67.9582 23.4039 68.7509 20.3638 68.5419 16.2524C68.4983 15.451 68.9687 14.7193 69.7178 14.4232C73.5418 12.9075 75.9721 10.9215 75.6236 9.30999Z" fill="#E06738"/>
<rect x="134.169" y="118.392" width="3.26587" height="15.3962" fill="#93642D"/>
<rect x="134.178" y="112.699" width="3.26587" height="15.3962" fill="#714D22"/>
<rect x="130.007" y="112.369" width="11.8193" height="11.8193" rx="5.90967" fill="#83C082"/>
<rect x="130.602" y="104.842" width="10.8163" height="10.8163" rx="5.40814" fill="#66A865"/>
<rect x="131.395" y="99" width="9.14737" height="9.14737" rx="4.57368" fill="#83C082"/>
<path fill-rule="evenodd" clip-rule="evenodd" d="M130.043 117.639C130.015 117.875 130 118.114 130 118.358C130 121.621 132.646 124.267 135.91 124.267C139.173 124.267 141.819 121.621 141.819 118.358C141.819 118.114 141.805 117.875 141.776 117.639C141.422 120.565 138.93 122.831 135.91 122.831C132.889 122.831 130.398 120.565 130.043 117.639Z" fill="#679A66"/>
<g filter="url(#filter0_d_0_317)">
<path d="M236.432 225.823C230.674 215.37 229.036 186.163 225.125 169.935C218.801 143.672 206.493 145.388 199.908 148.097C199.681 148.193 197.146 143.986 191.066 143.986C183.897 143.986 183.958 147.348 181.833 147.723C180.239 148.001 176.946 146.573 172.382 147.618C167.791 148.672 165.927 152.2 164.394 153.35L158.732 132.226C157.008 125.798 150.396 121.983 143.968 123.707C137.539 125.432 133.724 132.043 135.449 138.472L150.692 195.309L138.637 187.13C133.132 183.393 125.632 184.821 121.895 190.335C118.158 195.84 119.586 203.34 125.1 207.077L158.523 229.769C166.075 235.126 175.875 242.66 179.481 248.009C185.666 257.181 194.864 295.438 194.864 295.438C241.37 306.536 253.295 275.526 253.295 275.526L236.432 225.823Z" fill="#F0C7A9"/>
<path d="M248.156 252.8L242.137 234.045C241.214 231.171 238.496 229.307 235.561 229.542L199.568 232.408C199.124 232.443 198.706 232.539 198.305 232.66L197.826 231.319L195.317 234.594C195.152 234.795 194.986 234.995 194.847 235.213L194.76 235.335L194.768 235.352C194.524 235.735 194.307 236.145 194.141 236.572C193.636 237.913 193.558 239.455 194.045 240.962L200.064 259.716C200.988 262.59 203.706 264.454 206.641 264.219L242.634 261.353C246.736 261.022 249.454 256.824 248.156 252.8Z" fill="#0E7F3D"/>
<path d="M245.343 254.289L250.926 268.575C250.926 268.575 256.701 242.66 242.146 234.045L245.343 254.289Z" fill="black"/>
<path d="M242.337 258.253L208.627 260.944C205.874 261.162 203.322 259.289 202.442 256.415L196.711 237.634C195.483 233.601 198 229.42 201.859 229.115L235.569 226.424C238.322 226.206 240.874 228.079 241.754 230.953L247.485 249.734C248.714 253.767 246.187 257.948 242.337 258.253Z" fill="#32B768"/>
<path d="M200.047 259.716C200.047 259.716 186.946 265.343 190.517 278.862C190.517 278.862 180.5 283.348 178.366 272.782C176.223 262.225 175.753 243.679 193.766 239.777L200.047 259.716Z" fill="black"/>
<path d="M162.704 146.573L170.465 172.914" stroke="black" stroke-width="1.75615" stroke-miterlimit="10" stroke-linecap="round"/>
<path d="M182.53 148.193C182.53 148.193 189.472 158.637 190.552 171.294" stroke="black" stroke-width="1.75615" stroke-miterlimit="10" stroke-linecap="round"/>
<path d="M200.047 148.594C200.047 148.594 206.989 159.038 208.07 171.694" stroke="black" stroke-width="1.75615" stroke-miterlimit="10" stroke-linecap="round"/>
</g>
<defs>
<filter id="filter0_d_0_317" x="115.813" y="123.293" width="141.482" height="182.544" filterUnits="userSpaceOnUse" color-interpolation-filters="sRGB">
<feFlood flood-opacity="0" result="BackgroundImageFix"/>
<feColorMatrix in="SourceAlpha" type="matrix" values="0 0 0 0 0 0 0 0 0 0 0 0 0 0 0 0 0 0 127 0" result="hardAlpha"/>
<feOffset dy="4"/>
<feGaussianBlur stdDeviation="2"/>
<feComposite in2="hardAlpha" operator="out"/>
<feColorMatrix type="matrix" values="0 0 0 0 0 0 0 0 0 0 0 0 0 0 0 0 0 0 0.25 0"/>
<feBlend mode="normal" in2="BackgroundImageFix" result="effect1_dropShadow_0_317"/>
<feBlend mode="normal" in="SourceGraphic" in2="effect1_dropShadow_0_317" result="shape"/>
</filter>
</defs>
</svg>
