<svg width="26" height="21" viewBox="0 0 26 21" fill="none" xmlns="http://www.w3.org/2000/svg">
<path d="M23.4283 10.7877L17.6435 15.4794L13.0803 8.60958L8.51857 15.4773L2.7354 10.8137L2.20215 7.64067L8.03889 12.3631L13.0792 4.77539L18.1205 12.3631L23.9572 7.64067L23.4283 10.7877Z" fill="#ECF0F1"/>
<path d="M23.428 10.7851L21.8345 20.264H4.32431L2.73511 10.8111L8.51828 15.4779L13.08 8.60986L17.6432 15.4809L23.428 10.7851Z" fill="#F8C660"/>
<path d="M13.0795 4.77542C14.2517 4.77542 15.2019 3.82517 15.2019 2.65297C15.2019 1.48077 14.2517 0.530518 13.0795 0.530518C11.9073 0.530518 10.957 1.48077 10.957 2.65297C10.957 3.82517 11.9073 4.77542 13.0795 4.77542Z" fill="#F8C660"/>
<path d="M23.7447 8.51634C24.6971 8.51634 25.4692 7.74427 25.4692 6.79186C25.4692 5.83946 24.6971 5.06738 23.7447 5.06738C22.7923 5.06738 22.0203 5.83946 22.0203 6.79186C22.0203 7.74427 22.7923 8.51634 23.7447 8.51634Z" fill="#F8C660"/>
<path d="M2.255 8.51634C3.2074 8.51634 3.97948 7.74427 3.97948 6.79186C3.97948 5.83946 3.2074 5.06738 2.255 5.06738C1.30259 5.06738 0.530518 5.83946 0.530518 6.79186C0.530518 7.74427 1.30259 8.51634 2.255 8.51634Z" fill="#F8C660"/>
<path d="M13.1084 18.402L11.1975 15.6953L13.1084 12.9885L15.0192 15.6953L13.1084 18.402Z" fill="#DF5F4E"/>
<path d="M26 6.79184C26 5.54836 24.9884 4.53675 23.7449 4.53675C22.5014 4.53675 21.4898 5.54836 21.4898 6.79184C21.4898 7.42305 21.7508 7.99414 22.1702 8.40389L18.2398 11.5839L13.9671 5.15293C14.9948 4.787 15.7327 3.80479 15.7327 2.65307C15.7327 1.19016 14.5425 0 13.0796 0C11.6167 0 10.4266 1.19016 10.4266 2.65307C10.4266 3.80453 11.1641 4.78654 12.1914 5.15267L7.91934 11.5839L3.90015 8.33198C4.27812 7.92858 4.51019 7.38695 4.51019 6.79184C4.51019 5.54836 3.49857 4.53675 2.25509 4.53675C1.01161 4.53675 0 5.54836 0 6.79184C0 7.91289 0.822352 8.84513 1.89546 9.01794L3.80128 20.3493C3.84424 20.6047 4.0655 20.7946 4.32453 20.7946H21.8347C22.0938 20.7946 22.315 20.6048 22.358 20.3493L24.2693 8.9861C25.2606 8.74905 26 7.85479 26 6.79184ZM11.4877 2.65307C11.4877 1.77531 12.2018 1.06123 13.0796 1.06123C13.9573 1.06123 14.6714 1.77531 14.6714 2.65307C14.6714 3.53082 13.9573 4.24491 13.0796 4.24491C12.2018 4.24491 11.4877 3.53082 11.4877 2.65307ZM8.11916 12.8876C8.26683 12.8649 8.3981 12.7811 8.48072 12.6567L13.0791 5.73422L17.6785 12.6567C17.7611 12.7811 17.8924 12.8649 18.04 12.8875C18.1877 12.91 18.338 12.8695 18.4542 12.7755L23.1587 8.96914C23.1705 8.97234 23.1823 8.97558 23.1942 8.97858L22.9392 10.4959L17.7623 14.6991L13.5221 8.31553C13.4238 8.1675 13.2579 8.07848 13.0801 8.07848C12.9024 8.07848 12.7364 8.16745 12.6381 8.31553L8.39866 14.6979L3.22415 10.5211L2.9575 8.93435L7.70499 12.7755C7.82113 12.8695 7.97134 12.9101 8.11916 12.8876ZM1.06123 6.79184C1.06123 6.13351 1.59677 5.59797 2.25509 5.59797C2.91342 5.59797 3.44896 6.13351 3.44896 6.79184C3.44896 7.45017 2.91342 7.98571 2.25509 7.98571C1.59677 7.98571 1.06123 7.45017 1.06123 6.79184ZM21.3859 19.7334H4.77334L3.4906 12.1026L8.18518 15.8908C8.30131 15.9846 8.45162 16.0243 8.59914 16.0017C8.74666 15.979 8.87783 15.8948 8.96045 15.7705L13.0801 9.5683L17.2014 15.7728C17.2842 15.8974 17.4156 15.9812 17.5634 16.0037C17.7115 16.0263 17.8617 15.9853 17.9778 15.8911L22.6719 12.0825L21.3859 19.7334ZM23.7449 7.98571C23.0866 7.98571 22.551 7.45017 22.551 6.79184C22.551 6.13351 23.0866 5.59797 23.7449 5.59797C24.4032 5.59797 24.9388 6.13351 24.9388 6.79184C24.9388 7.45017 24.4032 7.98571 23.7449 7.98571Z" fill="#231F20"/>
<path d="M13.5151 12.6826C13.4156 12.5418 13.254 12.458 13.0816 12.458C12.9092 12.458 12.7476 12.5418 12.6481 12.6826L10.7373 15.3894C10.6078 15.5728 10.6078 15.8179 10.7373 16.0014L12.6481 18.7081C12.7476 18.8489 12.9092 18.9327 13.0816 18.9327C13.254 18.9327 13.4156 18.8489 13.5151 18.7081L15.4259 16.0014C15.5555 15.8179 15.5555 15.5728 15.4259 15.3894L13.5151 12.6826ZM13.0816 17.4821L11.8203 15.6954L13.0816 13.9086L14.3429 15.6954L13.0816 17.4821Z" fill="#231F20"/>
</svg>
