<svg width="300" height="179" viewBox="0 0 300 179" fill="none" xmlns="http://www.w3.org/2000/svg">
<path d="M46.9339 160.559C46.9339 160.559 4.34551 142.599 0.236454 94.8789C-3.87261 47.1591 46.9339 44.5933 46.9339 44.5933C46.9339 44.5933 83.9154 44.1831 116.208 37.9251C148.501 31.6671 184.929 8.16529 184.929 8.16529C184.929 8.16529 245.517 -21.2819 274.769 31.667C304.02 84.616 273.388 143.927 240.144 155.199C212.761 164.486 142.875 188.528 46.9339 160.559Z" fill="#B3FFD1"/>
<path d="M260.774 155.291L224.887 68.2713C222.262 61.9091 216.063 57.7544 209.18 57.7544H156.713H140.283H87.816C80.9328 57.7544 74.7334 61.9091 72.1091 68.2713L36.2215 155.291C31.611 166.479 39.8291 178.76 51.9284 178.76H140.283H156.713H245.067C257.167 178.76 265.391 166.472 260.774 155.291Z" fill="#0E7F3D"/>
<path d="M260.774 150.055L224.887 63.0358C222.262 56.6735 216.063 52.5189 209.18 52.5189H156.713H140.283H87.816C80.9328 52.5189 74.7334 56.6735 72.1091 63.0358L36.2215 150.055C31.611 161.243 39.8291 173.525 51.9284 173.525H140.283H156.713H245.067C257.167 173.531 265.391 161.243 260.774 150.055Z" fill="#32B768"/>
<path d="M199.366 137.2C204.728 137.2 209.075 134.789 209.075 131.814C209.075 128.84 204.728 126.429 199.366 126.429C194.004 126.429 189.657 128.84 189.657 131.814C189.657 134.789 194.004 137.2 199.366 137.2Z" fill="#0E7F3D"/>
<mask id="mask0_0_6" style="mask-type:alpha" maskUnits="userSpaceOnUse" x="34" y="52" width="229" height="122">
<path d="M260.774 150.055L224.887 63.0358C222.262 56.6735 216.063 52.5189 209.18 52.5189H156.713H140.283H87.816C80.9328 52.5189 74.7334 56.6735 72.1091 63.0358L36.2215 150.055C31.611 161.243 39.8291 173.525 51.9284 173.525H140.283H156.713H245.067C257.167 173.531 265.391 161.243 260.774 150.055Z" fill="#7ABA60"/>
</mask>
<g mask="url(#mask0_0_6)">
<path d="M256.138 129.211H224.958C223.982 129.211 223.089 128.657 222.679 127.778C219.846 121.709 210.756 117.378 199.672 117.378C199.601 117.378 199.529 117.378 199.464 117.378L196.573 104.211C196.227 102.629 197.432 101.131 199.047 101.131H240.613C242.013 101.131 243.146 99.9979 243.146 98.5978V98.4611C243.146 97.061 242.013 95.9279 240.613 95.9279H196.788C195.596 95.9279 194.567 95.1009 194.313 93.9352L192.275 84.6557C191.93 83.0732 193.134 81.5755 194.749 81.5755H231.985C233.385 81.5755 234.518 80.4424 234.518 79.0423V78.9056C234.518 77.5055 233.385 76.3724 231.985 76.3724H192.496C191.304 76.3724 190.276 75.5454 190.022 74.3798L185.287 52.7991C184.988 51.4315 183.633 50.5654 182.266 50.865L182.129 50.8976C180.762 51.1971 179.895 52.5516 180.195 53.9191L184.447 73.2988C184.792 74.8812 183.588 76.3789 181.973 76.3789H126.067C124.459 76.3789 123.261 74.9007 123.586 73.3313L127.741 53.2353C128.027 51.8613 127.142 50.5199 125.774 50.2398L125.638 50.2138C124.264 49.9272 122.922 50.8129 122.642 52.1804L118.051 74.3602C117.81 75.5389 116.768 76.3854 115.57 76.3854H94.7513C94.7252 76.3854 94.6796 76.3855 94.6406 76.3268C94.6015 76.2682 94.6145 76.2292 94.6275 76.2031L96.5225 71.0977C96.6007 70.8828 96.6593 70.6549 96.6723 70.4205C96.9002 66.8649 94.2368 64.436 91.326 64.436C91.3129 64.436 91.2999 64.436 91.2804 64.436H71.2886C69.8885 64.436 68.7554 65.5691 68.7554 66.9691V67.1059C68.7554 68.5059 69.8885 69.639 71.2886 69.639H91.2999C91.326 69.6455 91.3715 69.639 91.4106 69.6977C91.4497 69.7563 91.4367 69.7953 91.4236 69.8214L89.5352 74.9202C89.457 75.1351 89.3984 75.3631 89.3789 75.5975C89.1444 79.1465 91.7948 81.5885 94.7447 81.5885H113.428C115.036 81.5885 116.234 83.0668 115.909 84.6361L115.466 86.7721C115.225 87.9507 114.183 88.7973 112.985 88.7973H63.2593C61.8592 88.7973 60.7261 89.9304 60.7261 91.3304V91.4672C60.7261 92.8673 61.8592 94.0004 63.2593 94.0004H110.862C112.47 94.0004 113.669 95.4786 113.343 97.048L107.104 127.198C106.864 128.377 105.822 129.224 104.623 129.224H42.9875C41.5874 129.224 40.4543 130.357 40.4543 131.757V131.894C40.4543 133.294 41.5874 134.427 42.9875 134.427H102.501C104.109 134.427 105.307 135.905 104.982 137.474L97.4212 174.013C97.1346 175.387 98.0203 176.729 99.3878 177.009L99.5245 177.035C100.899 177.321 102.24 176.436 102.52 175.068L110.51 136.439C110.751 135.26 111.793 134.414 112.991 134.414H174.373C175.35 134.414 176.242 134.967 176.652 135.846C179.485 141.916 188.576 146.246 199.659 146.246C199.881 146.246 200.102 146.239 200.324 146.233L206.132 173.297C206.425 174.664 207.773 175.537 209.147 175.244L209.284 175.218C210.652 174.925 211.524 173.577 211.231 172.203L206.113 148.369C205.82 147.014 206.673 145.66 208.027 145.367C215.138 143.81 220.576 140.307 222.653 135.866C223.07 134.98 223.962 134.414 224.939 134.414H256.118C257.518 134.414 258.651 133.281 258.651 131.881V131.744C258.677 130.344 257.538 129.211 256.138 129.211ZM123.931 81.569H184.226C185.418 81.569 186.446 82.396 186.7 83.5616L188.739 92.8412C189.084 94.4236 187.879 95.9214 186.264 95.9214H162.118C156.309 95.9214 151.607 100.63 151.607 106.432V126.671C151.607 128.071 150.474 129.204 149.074 129.204H115.134C113.525 129.204 112.327 127.726 112.653 126.157L121.457 83.5877C121.691 82.409 122.733 81.569 123.931 81.569ZM174.38 129.211H159.35C157.95 129.211 156.817 128.078 156.817 126.677V106.438C156.817 103.508 159.194 101.137 162.118 101.137H188.517C189.709 101.137 190.738 101.965 190.992 103.13L193.629 115.158C193.929 116.525 193.063 117.893 191.689 118.179C184.382 119.69 178.782 123.246 176.665 127.765C176.255 128.644 175.363 129.211 174.38 129.211ZM199.672 141.043C190.816 141.043 180.95 137.253 180.95 131.815C180.95 126.378 190.816 122.588 199.672 122.588C208.529 122.588 218.394 126.378 218.394 131.815C218.388 137.253 208.522 141.043 199.672 141.043Z" fill="white"/>
</g>
<path opacity="0.3" d="M148.495 103.24C179.249 103.24 204.179 91.6914 204.179 77.4458C204.179 63.2002 179.249 51.6519 148.495 51.6519C117.742 51.6519 92.8114 63.2002 92.8114 77.4458C92.8114 91.6914 117.742 103.24 148.495 103.24Z" fill="white"/>
<path opacity="0.35" d="M148.495 94.3189C168.614 94.3189 184.923 86.7648 184.923 77.4464C184.923 68.1279 168.614 60.5739 148.495 60.5739C128.377 60.5739 112.067 68.1279 112.067 77.4464C112.067 86.7648 128.377 94.3189 148.495 94.3189Z" fill="white"/>
<path opacity="0.35" d="M148.495 86.8363C159.687 86.8363 168.76 82.6321 168.76 77.4459C168.76 72.2598 159.687 68.0557 148.495 68.0557C137.303 68.0557 128.23 72.2598 128.23 77.4459C128.23 82.6321 137.303 86.8363 148.495 86.8363Z" fill="white"/>
<path d="M148.495 10.8812C134.267 10.8812 122.734 22.4139 122.734 36.6491C122.734 42.2755 125.13 47.5047 127.598 51.7114L141.873 75.7536C143.377 78.2738 145.923 79.5697 148.495 79.6218C151.068 79.5697 153.614 78.2738 155.118 75.7536L169.392 51.7114C171.86 47.5047 174.257 42.2755 174.257 36.6491C174.257 22.4139 162.724 10.8812 148.495 10.8812ZM148.495 46.4562C142.862 46.4562 138.291 41.8848 138.291 36.2454C138.291 30.6125 142.862 26.0411 148.495 26.0411C154.128 26.0411 158.7 30.6125 158.7 36.2454C158.7 41.8848 154.128 46.4562 148.495 46.4562Z" fill="#E06738"/>
<path d="M229.131 108.359H217.767V97.6965C217.767 97.0159 218.511 96.4664 219.432 96.4664H227.465C228.387 96.4664 229.131 97.0159 229.131 97.6965V108.359Z" fill="white"/>
<path d="M273.036 46.9773L278.122 73.8523C278.383 75.2263 280.174 75.591 280.955 74.4318L287.539 64.6509L298.869 61.3818C300.211 60.9911 300.413 59.1743 299.182 58.5036L275.159 45.434C274.085 44.8479 272.809 45.7791 273.036 46.9773Z" fill="#EDB82C"/>
<path d="M208.724 33.7451C212.979 33.7451 216.428 30.2961 216.428 26.0415C216.428 21.7868 212.979 18.3378 208.724 18.3378C204.47 18.3378 201.021 21.7868 201.021 26.0415C201.021 30.2961 204.47 33.7451 208.724 33.7451Z" fill="#32B768"/>
<path d="M12.9734 139.394C19.3104 139.394 24.4475 134.257 24.4475 127.92C24.4475 121.583 19.3104 116.446 12.9734 116.446C6.6364 116.446 1.49927 121.583 1.49927 127.92C1.49927 134.257 6.6364 139.394 12.9734 139.394Z" fill="#0E7F3D"/>
<path d="M77.3839 18.2844C77.1039 17.1774 74.9875 16.6955 72.1483 16.9299C71.5948 16.9755 71.0738 16.6629 70.8524 16.155C69.7128 13.5437 68.2867 11.9027 67.1862 12.1827C66.0791 12.4627 65.5973 14.5791 65.8317 17.4183C65.8773 17.9719 65.5647 18.4928 65.0568 18.7142C62.4455 19.8538 60.8044 21.2799 61.0845 22.3805C61.3645 23.4875 63.4809 23.9694 66.3201 23.735C66.8736 23.6894 67.3946 24.002 67.616 24.5099C68.7556 27.1212 70.1817 28.7622 71.2822 28.4822C72.3827 28.2022 72.8711 26.0858 72.6367 23.2466C72.5911 22.693 72.9037 22.1721 73.4116 21.9507C76.0229 20.8176 77.6639 19.3915 77.3839 18.2844Z" fill="#EDB82C"/>
</svg>
