<svg width="280" height="277" viewBox="0 0 280 277" fill="none" xmlns="http://www.w3.org/2000/svg">
<g clip-path="url(#clip0_93_2)">
<path d="M9.61754 159.944C9.61754 159.944 8.33009 90.1788 95.0202 101.855C168.424 111.735 142.398 115.535 188.166 112.879C198.859 112.263 240.675 97.7516 257.537 110.17C278.727 125.772 299.613 179.998 246.487 236.075C183.91 302.121 47.5713 236.674 47.5713 236.674C47.5713 236.674 7.49857 211.667 9.61754 159.944Z" fill="#B3FFD1"/>
<path d="M142.281 276.524C200.578 276.524 247.837 264.383 247.837 249.406C247.837 234.429 200.578 222.289 142.281 222.289C83.9849 222.289 36.7262 234.429 36.7262 249.406C36.7262 264.383 83.9849 276.524 142.281 276.524Z" fill="#0E7F3D"/>
<path d="M142.281 268.495C206.088 268.495 257.814 256.354 257.814 241.377C257.814 226.401 206.088 214.26 142.281 214.26C78.4739 214.26 26.7479 226.401 26.7479 241.377C26.7479 256.354 78.4739 268.495 142.281 268.495Z" fill="#32B768"/>
<path d="M25.1655 165.622C24.2088 163.932 20.5074 164.093 15.9565 165.756C15.0713 166.077 14.0789 165.8 13.4799 165.067C10.44 161.285 7.35541 159.238 5.6656 160.185C3.97578 161.142 4.13674 164.844 5.79973 169.395C6.1216 170.28 5.84442 171.272 5.11127 171.871C1.33825 174.911 -0.718161 177.996 0.229565 179.685C1.18623 181.375 4.88772 181.214 9.4386 179.551C10.3237 179.229 11.3162 179.507 11.9152 180.24C14.9551 184.013 18.0397 186.069 19.7295 185.121C21.4193 184.165 21.2584 180.463 19.5954 175.912C19.2735 175.027 19.5507 174.035 20.2838 173.436C24.0658 170.396 26.1222 167.32 25.1655 165.622Z" fill="#EDB82C"/>
<path d="M275.616 90.8406C276.098 88.963 273.318 86.5133 268.883 84.5463C268.016 84.1619 267.497 83.2766 267.578 82.3379C268.007 77.5098 267.202 73.8888 265.325 73.406C263.447 72.9232 260.997 75.7038 259.03 80.1384C258.646 81.0057 257.761 81.5243 256.822 81.4439C251.994 81.0147 248.373 81.8193 247.89 83.6969C247.407 85.5744 250.188 88.0243 254.623 89.9913C255.49 90.3758 256.008 91.2608 255.928 92.1996C255.499 97.0276 256.303 100.649 258.181 101.131C260.059 101.614 262.508 98.8338 264.475 94.3991C264.86 93.5319 265.745 93.0132 266.684 93.0937C271.512 93.5228 275.133 92.7182 275.616 90.8406Z" fill="#E06738"/>
<path d="M267.98 216.844C273.595 216.844 278.146 212.292 278.146 206.678C278.146 201.064 273.595 196.512 267.98 196.512C262.366 196.512 257.815 201.064 257.815 206.678C257.815 212.292 262.366 216.844 267.98 216.844Z" fill="#32B768"/>
<path d="M136.677 145.376H148.448L158.042 240.555H126.932L136.677 145.376Z" fill="#93642D"/>
<path d="M136.593 145.376H148.287L153.372 196.605H131.508L136.593 145.376Z" fill="#714D22"/>
<path fill-rule="evenodd" clip-rule="evenodd" d="M90.434 99.5014C90.434 85.8411 101.508 74.7672 115.168 74.7672C128.828 74.7672 139.902 85.8411 139.902 99.5014V103.249C139.902 103.882 139.879 104.51 139.832 105.131C150.085 108.149 157.57 117.631 157.57 128.862V132.609C157.57 146.269 146.496 157.343 132.835 157.343C125.448 157.343 118.817 154.105 114.285 148.97C109.753 154.105 103.122 157.343 95.7342 157.343C82.0739 157.343 71 146.269 71 132.609V128.862C71 117.006 79.3412 107.099 90.4751 104.688C90.4478 104.212 90.434 103.732 90.434 103.249V99.5014Z" fill="#66A865"/>
<path fill-rule="evenodd" clip-rule="evenodd" d="M145.942 178.957C137.615 189.359 122.691 190.732 112.607 182.023C102.523 173.315 101.098 157.824 109.424 147.422L110.718 145.806C111.251 145.139 111.812 144.51 112.397 143.918C106.631 135.078 106.872 123.054 113.731 114.485L115.025 112.869C123.351 102.467 138.276 101.095 148.36 109.803C153.813 114.512 156.734 121.205 156.95 128.005C163.426 126.984 170.295 128.745 175.748 133.454C185.832 142.162 187.257 157.654 178.931 168.056L177.637 169.672C170.4 178.713 158.177 180.933 148.481 175.64C148.094 176.22 147.678 176.788 147.235 177.341L145.942 178.957Z" fill="#66A865"/>
<path fill-rule="evenodd" clip-rule="evenodd" d="M140.118 91.2129C140.118 77.4008 151.315 66.2039 165.127 66.2039C178.939 66.2039 190.136 77.4008 190.136 91.2128V95.0019C190.136 95.6422 190.112 96.2769 190.065 96.905C200.432 99.9566 208 109.544 208 120.9V124.689C208 138.501 196.803 149.698 182.991 149.698C175.521 149.698 168.817 146.423 164.234 141.231C159.652 146.423 152.947 149.698 145.477 149.698C131.665 149.698 120.468 138.501 120.468 124.689V120.9C120.468 108.912 128.902 98.8946 140.16 96.457C140.132 95.9755 140.118 95.4904 140.118 95.0019V91.2129Z" fill="#66A865"/>
<path fill-rule="evenodd" clip-rule="evenodd" d="M131.01 54.7026C131.01 40.8905 142.207 29.6936 156.019 29.6936C169.831 29.6936 181.028 40.8905 181.028 54.7026V58.4917C181.028 59.1319 181.004 59.7665 180.957 60.3947C191.324 63.4463 198.892 73.0339 198.892 84.3891V88.1782C198.892 101.99 187.695 113.187 173.883 113.187C166.413 113.187 159.708 109.913 155.126 104.721C150.543 109.913 143.839 113.187 136.369 113.187C122.557 113.187 111.36 101.99 111.36 88.1782V84.3892C111.36 72.4018 119.794 62.3843 131.052 59.9466C131.024 59.4652 131.01 58.9801 131.01 58.4917V54.7026Z" fill="#66A865"/>
<path fill-rule="evenodd" clip-rule="evenodd" d="M95.2586 65.5525C95.2586 54.2195 104.446 45.0323 115.779 45.0323C127.112 45.0323 136.299 54.2195 136.299 65.5525V68.6615C136.299 69.1868 136.279 69.7076 136.24 70.223C144.747 72.7269 150.956 80.5937 150.956 89.9108V93.0198C150.956 104.353 141.769 113.54 130.436 113.54C124.307 113.54 118.806 110.853 115.046 106.593C111.286 110.853 105.785 113.54 99.6557 113.54C88.3227 113.54 79.1355 104.353 79.1355 93.0197V89.9108C79.1355 80.075 86.0556 71.8555 95.2927 69.8554C95.2701 69.4604 95.2586 69.0622 95.2586 68.6615V65.5525Z" fill="#66A865"/>
<path fill-rule="evenodd" clip-rule="evenodd" d="M161.219 45.8373C168.986 54.3746 168.604 67.8493 160.367 75.9338C152.13 84.0184 139.156 83.6513 131.389 75.1139L130.322 73.941C129.803 73.371 129.321 72.7791 128.875 72.1681C120.967 76.3879 111.03 74.9012 104.629 67.8653L103.562 66.6924C95.7947 58.1551 96.1759 44.6805 104.413 36.5959C108.868 32.2239 114.708 30.3235 120.36 30.8504C120.174 24.9589 122.331 19.0105 126.786 14.6384C135.023 6.55392 147.997 6.92101 155.764 15.4583L156.831 16.6312C163.584 24.0543 164.177 35.2099 158.802 43.3097C159.267 43.7357 159.718 44.1873 160.152 44.6644L161.219 45.8373Z" fill="#83C082"/>
<path fill-rule="evenodd" clip-rule="evenodd" d="M206.018 111.606C202.396 117.187 196.609 121.233 189.846 122.554C189.099 126.375 187.46 130.061 184.896 133.264L183.602 134.88C176.365 143.921 164.142 146.141 154.446 140.848C154.059 141.428 153.643 141.996 153.201 142.549L151.907 144.165C143.581 154.567 128.656 155.94 118.572 147.231C112.695 142.156 109.759 134.777 109.98 127.444C106.378 129.494 102.21 130.664 97.7681 130.664C87.599 130.664 78.8632 124.527 75.0622 115.755C72.4943 119.654 71 124.323 71 129.341V133.089C71 146.749 82.0739 157.823 95.7342 157.823C99.0642 157.823 102.241 157.165 105.14 155.972C102.255 165.246 104.906 175.853 112.607 182.503C122.691 191.211 137.615 189.838 145.942 179.436L147.235 177.82C147.678 177.267 148.093 176.699 148.481 176.119C158.177 181.413 170.4 179.193 177.637 170.151L178.931 168.535C183.194 163.209 184.901 156.549 184.198 150.149C197.45 149.519 208 138.576 208 125.168V121.379C208 117.911 207.294 114.608 206.018 111.606Z" fill="#458244"/>
</g>
<defs>
<clipPath id="clip0_93_2">
<rect width="280" height="277" fill="white"/>
</clipPath>
</defs>
</svg>
