<svg width="170" height="170" viewBox="0 0 139 139" fill="none" xmlns="http://www.w3.org/2000/svg">
<circle cx="69.5" cy="69.5" r="67.5" fill="#32B768" fill-opacity="0.28" stroke="#32B768" stroke-width="4"/>
<circle cx="70" cy="70" r="18.5" fill="white" stroke="#374151"/>
<path d="M67.125 77.8124H65.3438V76.6249H67.125V69.2425L65.0382 67.9903L65.6493 66.9722L67.7361 68.224C67.9115 68.3301 68.0567 68.4795 68.1576 68.6578C68.2585 68.8362 68.3119 69.0375 68.3125 69.2425V76.6249C68.3121 76.9398 68.1869 77.2416 67.9643 77.4642C67.7417 77.6869 67.4398 77.8121 67.125 77.8124Z" fill="#374151"/>
<path d="M73.0625 77.8125H71.2813C70.9664 77.8121 70.6646 77.6869 70.442 77.4643C70.2194 77.2417 70.0941 76.9398 70.0938 76.625V70.0938H73.6563C73.988 70.0937 74.316 70.0242 74.6193 69.8897C74.9225 69.7552 75.1942 69.5587 75.4169 69.3128C75.6396 69.0669 75.8083 68.7771 75.9121 68.4621C76.016 68.147 76.0527 67.8137 76.02 67.4836C75.9405 66.883 75.6425 66.3328 75.183 65.938C74.7234 65.5432 74.1345 65.3317 73.5288 65.3438H72.5885L72.4836 64.8812C72.1434 63.3821 70.7058 62.375 68.9063 62.375C68.2267 62.3772 67.5618 62.573 66.9895 62.9396C66.4173 63.3062 65.9614 63.8283 65.6754 64.4448L65.4922 64.8409L64.9798 64.773C64.9038 64.76 64.827 64.7523 64.75 64.75C64.1201 64.75 63.516 65.0002 63.0706 65.4456C62.6252 65.891 62.375 66.4951 62.375 67.125C62.375 67.7549 62.6252 68.359 63.0706 68.8044C63.516 69.2498 64.1201 69.5 64.75 69.5V70.6875C63.8052 70.6875 62.899 70.3122 62.2309 69.6441C61.5628 68.976 61.1875 68.0698 61.1875 67.125C61.1875 66.1802 61.5628 65.274 62.2309 64.6059C62.899 63.9378 63.8052 63.5625 64.75 63.5625C64.7657 63.5625 64.7812 63.5625 64.7967 63.5631C65.2144 62.8426 65.8136 62.2441 66.5347 61.8273C67.2557 61.4105 68.0734 61.1899 68.9063 61.1875C71.0905 61.1875 72.8798 62.3617 73.5088 64.1562H73.5288C74.4294 64.1462 75.302 64.4685 75.9798 65.0616C76.6576 65.6547 77.0929 66.4769 77.2024 67.3709C77.2509 67.8657 77.1952 68.3652 77.0391 68.8372C76.8829 69.3093 76.6297 69.7434 76.2957 70.1117C75.9617 70.48 75.5543 70.7743 75.0997 70.9758C74.6451 71.1772 74.1535 71.2812 73.6563 71.2812H71.2813V76.625H73.0625V77.8125Z" fill="#374151"/>
</svg>
